/* XPM */
static char *_5f274adb4d7461b8b44192779493d2dLhKDULLUa6RGAttS[] = {
/* columns rows colors chars-per-pixel */
"50 50 212 2 ",
"   c #050202",
".  c #0C0402",
"X  c #0D0C03",
"o  c #0D0C0A",
"O  c #070804",
"+  c #120A05",
"@  c #1A0D00",
"#  c #130D0B",
"$  c #1A0E0B",
"%  c #0E100A",
"&  c #101102",
"*  c #1E1106",
"=  c #1A1A00",
"-  c #14110D",
";  c #1B130D",
":  c #1A1A0D",
">  c #0B0F10",
",  c #151412",
"<  c #1B1612",
"1  c #1D1A15",
"2  c #1C1B19",
"3  c #171813",
"4  c #270D00",
"5  c #271A00",
"6  c #23140D",
"7  c #271A0D",
"8  c #291D0E",
"9  c #281C02",
"0  c #221611",
"q  c #231B14",
"w  c #2A1E14",
"e  c #241E1A",
"r  c #291E19",
"t  c #1E2009",
"y  c #1F2017",
"u  c #1F211D",
"i  c #27270D",
"p  c #29290E",
"a  c #34270D",
"s  c #25320F",
"d  c #34340D",
"f  c #242314",
"g  c #2C2316",
"h  c #262C15",
"j  c #2B2B13",
"k  c #25241D",
"l  c #2B231B",
"z  c #222A1A",
"x  c #292B1B",
"c  c #322417",
"v  c #332A16",
"b  c #33261B",
"n  c #34291C",
"m  c #3A291D",
"M  c #263314",
"N  c #2C3614",
"B  c #2D3B16",
"V  c #253219",
"C  c #2C341A",
"Z  c #2D3B1B",
"A  c #253817",
"S  c #323616",
"D  c #333D16",
"F  c #34341A",
"G  c #3A331E",
"H  c #333C1C",
"J  c #393E1F",
"K  c #1D1F23",
"L  c #252421",
"P  c #2B2622",
"I  c #272924",
"U  c #2B2A22",
"Y  c #2B2E29",
"T  c #332726",
"R  c #382721",
"E  c #342C23",
"W  c #3B2D23",
"Q  c #342C28",
"!  c #392F29",
"~  c #2E3B21",
"^  c #2E332D",
"/  c #343326",
"(  c #3C3324",
")  c #343C21",
"_  c #3A3D23",
"`  c #35322A",
"'  c #3A352B",
"]  c #3D3B2D",
"[  c #2F2F30",
"{  c #2F3633",
"}  c #323732",
"|  c #343D35",
" . c #3A3C33",
".. c #323F38",
"X. c #383E38",
"o. c #41271A",
"O. c #41341A",
"+. c #423E1F",
"@. c #432F23",
"#. c #413427",
"$. c #403924",
"%. c #44352B",
"&. c #49352B",
"*. c #453A2C",
"=. c #4A3C2C",
"-. c #523E2C",
";. c #413C31",
":. c #4B3B34",
">. c #523C30",
",. c #2F401C",
"<. c #34421C",
"1. c #3A441C",
"2. c #36491E",
"3. c #3D4A1E",
"4. c #334117",
"5. c #354222",
"6. c #3E4322",
"7. c #3A4621",
"8. c #3E4722",
"9. c #3C4323",
"0. c #374822",
"q. c #3B4920",
"w. c #3E4821",
"e. c #3E4D21",
"r. c #3C4A23",
"t. c #3F4428",
"y. c #3F4929",
"u. c #36403A",
"i. c #3C443A",
"p. c #3C493D",
"a. c #424B1E",
"s. c #44441F",
"d. c #4A531F",
"f. c #404127",
"g. c #414226",
"h. c #404921",
"j. c #424A26",
"k. c #424E26",
"l. c #434B24",
"z. c #4B4C26",
"x. c #414429",
"c. c #4C432E",
"v. c #444D2A",
"b. c #4A4B2B",
"n. c #504E27",
"m. c #54422B",
"M. c #5D432B",
"N. c #445224",
"B. c #4B5424",
"V. c #4D5925",
"C. c #45522B",
"Z. c #4A532B",
"A. c #4C5B2D",
"S. c #535C2B",
"D. c #424133",
"F. c #4D4132",
"G. c #4D4D34",
"H. c #454338",
"J. c #4C4A3E",
"K. c #464D31",
"L. c #544534",
"P. c #5A4633",
"I. c #524A36",
"U. c #594831",
"Y. c #524539",
"T. c #544C3C",
"R. c #5B4C3C",
"E. c #5A4638",
"W. c #435232",
"Q. c #4C5332",
"!. c #515631",
"~. c #535B33",
"^. c #525738",
"/. c #5C523E",
"(. c #535F3A",
"). c #61452E",
"_. c #65482E",
"`. c #614E3B",
"'. c #644433",
"]. c #615238",
"[. c #5E692D",
"{. c #596234",
"}. c #5D693B",
"|. c #606F37",
" X c #454B44",
".X c #4D4C41",
"XX c #414742",
"oX c #534E43",
"OX c #5A4D41",
"+X c #4E5344",
"@X c #4C564B",
"#X c #4D5A4E",
"$X c #4E5A46",
"%X c #535344",
"&X c #5C5444",
"*X c #53554A",
"=X c #525A4D",
"-X c #5C594C",
";X c #5D5847",
":X c #4C5A51",
">X c #535C53",
",X c #5C5D53",
"<X c #635443",
"1X c #5C6559",
"2X c #61675D",
"3X c #696358",
"4X c #6F685E",
"5X c #776955",
"6X c #7E735F",
"7X c #86725F",
"8X c #827B68",
"9X c #8D826C",
/* pixels */
"<.v.<.D B 4.N A <.1.t.C F D ) F 1.h.<.B M N ,.B B <.e.4.N A N M j N 8.F D N 3.Z B e.0.<.z M M 5.N J ",
"q.3.2.q.4.<.B A e.e.7.D J H H l.Z.N.Z.N M D <.<.3.e.4.2.3.<.<.M N 3.k.J N D <.B N.N.N.N.V Z D H H 8.",
"k.C.Z.y.<.<.Z M y.2.Z H h.a.8.j.h.v.2.B 4.5.D B <.C.C.Z.v.5.,.V Z l.x.H H <.j.q.r.q.q.2.~ 5.5.<.N <.",
"D 1.9.H D B H Z <.Z Z 6.J D <.1.H 5.<.<.Z F B S B F <.1.4.N D H h F N Z 5.H D 1.,.B 4.<.5.5.D B B Z ",
"z.G ) M 4.e.v.<.5.J S j _ 6.1.<.Z H _ ) j p j j $.x 8 x W p n p ; p R ( h _ 6.N.Z <.D 1.Z D _ v.J 1.",
"9.Z C M <.Z.k.) v.3.h.h.j.h.F M ( _ p @ 9 7 i T p . k f.f 7 b p 7 i p b F #.x.x.~ C <.1.1.t.t.Z.v.x.",
"N J 3.3.3.V.B.!.h.H 9.1.j 8 / ` #.x 7 o @ o p k n i #.f.#.7 n f.#.i x F / f.n p J Z.N.a.z.b.1.1.b.j.",
"k.!.1.e.S.V.d.d.k.Z ) ( / f.#.b i @ X 7 7 X p #.#.7 i OXoXv #.b i i 7 i F i @ $.t.3.S.3.b.S.{.B.Q.v.",
"6.$.z.N.k.a.a.a.4.j._ j 7 x / G.7 = 7 7 .   #.D.#.i #.R.` i 7 i b . : i b 7 . 7 7 H A.3.s.1.[.}.W.r.",
"Z.b.k.e.Z.Q.1.1.1.!.t.@ = #.F ( i 7 : #.X 7 i 7 i 7 i #.8 p i . i n 7 i i T 7 v 7 S C.d.V.q.Z.Z.5.<.",
"y.Z.e.2.j.H H t._ J.7 : i ` ;.F 7 = 7 : 7 = 7 7 i i f.i F #.i i .XF 7 = 7 i X / #.p g.N.}.Z.) S H ) ",
",.7.C.k.W.N C E = 7 7 7 7 b ` 4 i 7 = i 7 b i @ = 7 F b 7 #.B.$.G.#.= 7 / #.X i F p i D S.v./ $.<.Z ",
"V t.5.D r.Z _ ;.` = 7 i 7 = I F OXI 7 F k o 7 i 7 X 7 #.` F F g.#.i i F #.7 @ i #.i #.) H 5.J !.k.v.",
"Z r.H r.3.F = T p @ : i 7 b #.#.G.O.F #.#.7 7 i i 7 = b i i i #.= 7 i #.i 7 X 7 i i d n j 5.1.(.1.) ",
"C M 4.q.D $.x = 7 7 x #.7 7 x S ` #.7 i D.x b : o.I #./ x x b #.: i 7 i : : @ : i k #.i g H t.0.V Z ",
"C C Z V ) n i T 7 k 7 7 X 7 7 7 i i F 7 7 7 = T F #.d a c i : #.@ i 7 i p @ 7 #.d X = 7 7 n 9.) x 5.",
"F ) ~ V g i : 7 . / 7 X X = I . 7 7 k : x : 7 x F.k #.f.i F 7 i . i b k v : @ k #.i 7 7 7 i F D C H ",
"1.<.H F & $ + . X v X . X 7 i $ q q k b l b P R b b / m _ #.f b 7 l w ! j i 7 b f.O.F f.G.n D 9.5.v.",
"Z.N.<.( #.: $ X 7 : k / . i b # ; ; : q q q q ; ; < 0 0 q q q 0 ; 6 < $ - p 7 X #.OXL.F #.p I.5.C.S.",
"~.{.1.8 7 k 1 2 , < - k i b J.o q e l T l T l e e q k r b l T l e q e 1 # w i b / S i 7 f v G.) y.b.",
"z.Z.F 7 @ $ e ( m b W , o 3 - # l . , , < , 3 , , , , 3 , , 3 3 , , . q l e U [ k y < o o 2 OX^.q.h.",
"b.s.S 7 g - ' b q 7 q w l g 1 3 *., I I I I L L I I I L P L L L I I > m <   3 < 2 g n W e , p m D r.",
"N.a.t = : , T + b ' ;.P < 6 ; ; #.- k u K e e k K e k k 2 k k e u k # W # b b r e < 0 l ' - w : F 5.",
",.1.g 7 L , l $ #.&X*XT.L.-.#.$ m . o o + o o o o o o o o X X o X o . b o ; 6 $ ' .X' < ! - q $ j H ",
"D 1.x i I 1 e + #.%X>X&XL.E.=.$ b < ` ` / ` ` ` / ! ` ` ` / ` ` ` ` - W , T.E.L.R.,XD.< T < l i 7 H ",
"D b.p p , r ; ; l } } J.&X-XJ.$ R - ' ` / ` ' ' ' ' ' ` ` ' ' ` ` ' $ ( , =X]._.*.| Y , L 0 F b = 5.",
"h.b.p F 1 e ; 1 r q l l U ^ Y q q k ` ' ' e 1 < 1 1 1 3 1 < 3 l ' } e l f Y g c w q q ; P 0 W 6 7 5.",
"v.Q.7 T 1 l < e l q l P l q o b o ` ` e , , 3 , , - , , , , , 3 < P ' ; W   l T r 0 e . q e x 6 5 J ",
"_ 5.7 v q R q X.} } | z ; $ # W # ` 2 - 2 L I L I I L I I L I L 2 o k , R . ; : g b R r ; r q j 8 F ",
"_ Z p n q b q ..:X:X>XXXX.X.< ( # k - k k L L k L k L k L k L L L k % O x # X.| m.M.P.W ; E e W i f.",
"_ C 7 n P R : | :X1X,X+X:X@X2 (   , k L L L L k k L k L L k k L L L 2 # b , :X%XU.U.R.W 0 T 1 I 7 k.",
"J l.q ( k l q p.1X<XJ.$X@X@X1 l o k I L L L L L L L L L k L L L L L I , ( - @X%XT.+X%X] : l < g $ z.",
"l.!.T x q 1 ` =X-X+X>X:X.XJ.1 l o K L L L L k L L L L L L L L L L k L - n , >X-X+X@X:X| : l 1 c X 9.",
"x.+.= E 0 < { #X+X#X#X@X*XT.; b o L L L L L L L L L L L L L L L L K L % l , *X,X1X1X2X| 0 T q b h 5.",
"Z.Z.q E e w ` *XoX=XoXI./.T.< b O L L L L L L L L L L k L k L L L L L # b $ I./.-X;X-X .; l e ( n 0.",
"k.N.n E l e ^ =X%XT.U.M.P.U., W o L L L L K L L K L L L K L L L L L L - b $ P.P.T.+X@Xi.< q k _ F <.",
"N 1.U W R + - p. XH.m.).'.E.< b o L L L L L L L L L L L L K L L L L L - P $ P.R.-X X XXXI 0 e ' :.,.",
"V 1.l W W k q , ; < l #.@.*.< b . L L L L L L k L k L L L L L L L L L - R . #.@. .x < , o q g W F N.",
"H <._ W T x c 1 b n W q 0 . $ k - L L L L L K L L L L L L L L L L L L < Q ; . 1 q W n l 2 g b ' j.H ",
"N s ;.r E W U.&X3XT.=.T.*X, 0 %.+ - P L k k L L L L K L k L k k k I - . #.q 3 %XI.:.T.3X<XL.b ! F H ",
"Z N b c k r -.<X4X&XT.R.%X3 6 #.. - P L P l L L L L K I L L L L L P - . #.0 3 %XR.T.&X4X<X-.e r / <.",
"F H 6 L.q w @.E.Y.%X*X&XI.; 0 &.+ # x L L L k L L L L L l r L L L I $ + &.6 ; Y.&X*XoXY.E.#.r q j D ",
"g.6.+ e r m 7 # # # o l 6Xr 6 &.. % I L L L L P L L 2 ' D.l L L L P & . &.6 r 6Xl # - # $ 6 c r _ k.",
"h.k.1.) 0 &.q e 2 l x #.8Xb 6 =.E I L L L L l P L L 2 t.I.x L L L L L E :.6 l 9X$.x x q q r =.0 t.Z.",
"~.}.N.t.g f U ! W T.I.L.8Xr $ Q T.] q Y e 2 2 e 2 2 e ` G.1 2 e T 1 ] OXQ # l 8XI.I.T.R ! P f f ) Q.",
"f.b.v._ t.5.q   . -.v ; 5XT     F.b $ OX; .   ; . . ; u G..   ; OX; b D..   l 5X6 v -..   2 l.Z.C.y.",
"K.$._ j.v.v.< $ -.`.E.m.7XR.W m I.=.W R.=.@.&.c.m &.c.q &Xm &.F.R.W =.I.n W '.8Xm.L.`.-.6 1 b.(.r.t.",
"j.j.h.3.5.t.: < :.%.' *.OX:./ E I.*.W T.=.W #.&.m #.*.l OXb @.=.R.W *.I.E ! :.OX*.' ' :.; , Q.Z.0.r.",
"D 9.A.A.~.H 7   O   O O O . . O F.n ; T., X . ; + . ; l J.+ . ; T.; l c.O O . . . . O . O q 5.v.<.<.",
"Z 9.y.Z 4.C C V h C C C 5.F H <.r.Z.Z ~ z z V H <.Z 9.6.H 5.Z M i h C M Z ) Z 5.5.k.t.C V x x Z 5.y."
};
