/* XPM */
static char *result[] = {
/* columns rows colors chars-per-pixel */
"50 50 223 2 ",
"   c #030302",
".  c #090604",
"X  c #070805",
"o  c #0B0B06",
"O  c #080709",
"+  c #0C0C0A",
"@  c #070908",
"#  c #140E05",
"$  c #110D0B",
"%  c #180F08",
"&  c #0E120A",
"*  c #12130C",
"=  c #1B140D",
"-  c #151A0C",
";  c #1B1C0D",
":  c #0D1115",
">  c #131411",
",  c #1A1510",
"<  c #161912",
"1  c #1C1C14",
"2  c #1C1B1A",
"3  c #17171A",
"4  c #0B0C11",
"5  c #261A0A",
"6  c #221D15",
"7  c #221E18",
"8  c #201710",
"9  c #1B230F",
"0  c #1D2414",
"q  c #1E2219",
"w  c #1B2511",
"e  c #232C0F",
"r  c #3C2A09",
"t  c #222413",
"y  c #252C15",
"u  c #292E15",
"i  c #24251C",
"p  c #2B251C",
"a  c #242C1A",
"s  c #2A2C1C",
"d  c #332C1D",
"f  c #302814",
"g  c #263315",
"h  c #2C3515",
"j  c #2D3B16",
"k  c #25331A",
"l  c #2C341A",
"z  c #2D3B1B",
"x  c #253916",
"c  c #323616",
"v  c #323C16",
"b  c #31361A",
"n  c #333C1C",
"m  c #393D1D",
"M  c #27340F",
"N  c #1D1D20",
"B  c #1F2022",
"V  c #242423",
"C  c #262924",
"Z  c #2A2B23",
"A  c #2C2B2B",
"S  c #292724",
"D  c #352E24",
"F  c #342E2C",
"G  c #2F3027",
"H  c #2E3B21",
"J  c #2E312D",
"K  c #323424",
"L  c #3C3325",
"P  c #343D22",
"I  c #393E23",
"U  c #323429",
"Y  c #3C362A",
"T  c #37382B",
"R  c #3B3C2C",
"E  c #252B30",
"W  c #343332",
"Q  c #343A35",
"!  c #3D3C35",
"~  c #393B39",
"^  c #412E09",
"/  c #44310D",
"(  c #533B0B",
")  c #473918",
"_  c #553E17",
"`  c #443B2C",
"'  c #493D2F",
"]  c #433724",
"[  c #2D431A",
"{  c #334217",
"}  c #34421D",
"|  c #3B441D",
" . c #36491E",
".. c #3C4A1E",
"X. c #374917",
"o. c #2D4020",
"O. c #354322",
"+. c #3C4423",
"@. c #364A23",
"#. c #3C4A23",
"$. c #3D4529",
"%. c #3D4A29",
"&. c #374828",
"*. c #3E5323",
"=. c #3E5029",
"-. c #3E4133",
";. c #42441D",
":. c #424A1E",
">. c #484A1F",
",. c #5B4519",
"<. c #45511E",
"1. c #4A531F",
"2. c #664D19",
"3. c #755618",
"4. c #424524",
"5. c #4C4424",
"6. c #434B24",
"7. c #4A4D24",
"8. c #41452A",
"9. c #444C2A",
"0. c #4A4C2B",
"q. c #4A422D",
"w. c #564A27",
"e. c #445224",
"r. c #4A5425",
"t. c #4B5A25",
"y. c #45522B",
"u. c #4A532B",
"i. c #45592D",
"p. c #4C5A2B",
"a. c #415827",
"s. c #535B2C",
"d. c #55562B",
"f. c #414434",
"g. c #4C4231",
"h. c #454C31",
"j. c #44463A",
"k. c #464939",
"l. c #4A4D3D",
"z. c #4B4936",
"x. c #544935",
"c. c #574D3C",
"v. c #534731",
"b. c #425331",
"n. c #4C5531",
"m. c #465B31",
"M. c #4D563A",
"N. c #525532",
"B. c #535A33",
"V. c #5D513A",
"C. c #545C3A",
"Z. c #595735",
"A. c #644D20",
"S. c #68593C",
"D. c #4B612C",
"F. c #59662D",
"G. c #4C6334",
"H. c #5A6434",
"J. c #5A6A36",
"K. c #5D623A",
"L. c #556838",
"P. c #606D36",
"I. c #606536",
"U. c #454442",
"Y. c #4B4B49",
"T. c #504E4F",
"R. c #4F5542",
"E. c #4A534A",
"W. c #515442",
"Q. c #545944",
"!. c #5A5C4B",
"~. c #555D4C",
"^. c #575652",
"/. c #6B5D43",
"(. c #685948",
"). c #615B50",
"_. c #5D634D",
"`. c #5B6359",
"'. c #61664F",
"]. c #68654A",
"[. c #75654A",
"{. c #7A6B4A",
"}. c #756549",
"|. c #656B53",
" X c #65635E",
".X c #676B55",
"XX c #7F6D50",
"oX c #697157",
"OX c #6D725A",
"+X c #5F6365",
"@X c #696764",
"#X c #7F7D77",
"$X c #7C776D",
"%X c #866419",
"&X c #926C16",
"*X c #84734E",
"=X c #8B764C",
"-X c #8B7956",
";X c #867556",
":X c #917D55",
">X c #846D64",
",X c #8C7768",
"<X c #95825A",
"1X c #9C875F",
"2X c #9D8A5E",
"3X c #9B8557",
"4X c #A38C5D",
"5X c #9D8964",
"6X c #A48D62",
"7X c #A88C62",
"8X c #A69164",
"9X c #AC9364",
"0X c #B59B6D",
"qX c #B99F71",
"wX c #B1A073",
"eX c #979594",
"rX c #A8ABAA",
"tX c #BDB1AB",
"yX c #B8B9BB",
"uX c #CAAF80",
"iX c #C5A194",
"pX c #D9D0CB",
"aX c #F7DBCC",
/* pixels */
"} 9.} j j { x x { +.8.l v v P b +.| | j 0 g z M h x l P -.-.h g l h +.n c h  .z { ..O...g y g O.c m ",
"#...| #.} } h x *.#.m m m n v 9.u.r.a.g = % * o . . . .   T O.g v | 6.m h v } h *.e.#.e.k z j O.m O.",
"6.y.u.6.} } l h #. .j m +.:.6.6.6.9.n - V.-X5X*X{.}.S.V.  * * 0 n 6.4.n } } 4.#. .#.#. .z P O.m h } ",
"v | +.[ { v v z O.[ l O.m v v | b P x X 6X6X*X[.*X-X9X1Xd     X l P b l O.m v ..[ j { | O.O.z v h j ",
"7.m P k [ ..9.O.| m c u I O.O.| j n u . 4X9X8 $ 6 p *X4X<X' @   l n | v u I O.6.n H v +.[ v +.9.m +.",
"8.l b x } u.9.m 9.#.6.+.0.r.%.n l y + O uX*X).>X>X,X] :X9X-XR   l O.#.| 6.0.9.9.n z { | O.$.+.n.9.6.",
"h v | | :.t.r.u.6.j +.e.6.:.+.| u.y + A [.U.pXaXiX,XeX^.*X6Xx.  1 | l } 7.6.;.{ +.y.e.:.w.0.| O.h.6.",
"6.N.{ <.s.t.r.1.6.z O.s.Z.K.n.| e.s O B O W yXtX>XA rX~ S.5XS.6 + +.z n %.d.F.r.| 6.s...7.s.F.7.M.9.",
"+.] 7.e.6.:.:.:.X.y.#.@.>.4.4.%.9.l X /.V.p N 3 $   B + S.<X=X*X7 n 4.@.%.;.;.m $.+.p.:.;.| F.J.b.#.",
"u.0.6.e.u.n.| m | y.} [ e.4.) @.9.k q.3X1X/.Q E.~.^.3   /.8X}.K $ n 9.} @.@.4.m +.m.p.a.t.4.u.u.} } ",
"y.i.#. .9.n P O.P O.j z O.+.$.#.B.$.' 1X7X<XS Q Q ~ :   p ' p   0 P P v j @.O.+.O.L.J.e.P.u.P c v P ",
"z +.y.#.0.j h y a l P @.v l $.+.C.c.t 5X4X8X. # : $ $   $ @ X X 0 a s P } n P %.6.B.K.+.s.9.K $.P z ",
"k O.} j +.n O.z g y b I } v +.+.&.4.* 8X4X4X5.5 A.,.2.L 5XF & m.2 o w l P } O.0.+.i.+.| v | b B.6.9.",
"l $.n #...#.+.g h l b n #.+.%.+.&.s   v.3X4X4Xw.) %X_ ;XqX[.K &.a   & ; v +.i.#.$.9.| m s I +.Z.+.n ",
"l h } ..| 6.} x j g l O.+.:.| 4.y o X   x.6X8X=X= 3.) 6X4X6XV.  %.a @   b 4.u.+.+.| m v T n 8.O.k P ",
"b l z g =.p.O.l h n a v +.+.4.h . @ i   {.4X2Xg.= S.*X6X7X1Xx.  &.G.l O $ P 8.4.I n | c P P +.P k n ",
"z P H k #.7.| l n $.h j v b u o   l &.  -X9X8X[./.<X8X2X8Xc.o   < L.=.k X a h m j n +.{ l m | v l n ",
"| | O.k n v h z #.p.6.l P I t   k m.9.  g.v.w.0XqX0X<XV.v.' t     q =.=.  u n m z O. .6.v v { %.@.9.",
"u.e.X.} v | | ..p.r.u.:.4.+.y   =.%.2   $ * S {.}.}.` . + p `   o > q z   h | v } ..D.p.| :.n @.y.B.",
"N.F.<.| +.| 6.| 6.v O.u.e.t.n   z 0 * & * W ;X6 , , .   2 Q V   H =.k @   n F.e.} :.t.a.e.6.+.n +.0.",
"0.u.7.+.+.| 6.| ..j  .*.:.d.n   + k a.H o W.wX  1 1 3 A T.@XA a m.L.%.q   m d.r.| 6.{ X.#.#.6.*.6.4.",
"5.4.;.+.9.r.u.4.| ..@.@.u.u.I   q %.L.b.. L ].  < V U.T.U.A X O.G.m.i.@.  I 0.>.6.9.#.| #.O.u.D.X.@.",
"9.>.| | #.:.4.$.z n n P #.6.I   @.i.m.m.  X 1 2 3 U.U.V 4 , w &.i.=.@.O.  P 0.u.@.%.| j | 9.n.n.+.O.",
"[ X.#.#.7.l b n x k z o.j n P   o.&.@.0 X 3 U.T.4 V >   . ` ` < H &.a &   z } 6.#.a.+.v m z I 8.| n ",
"n | +.n 6.l h l y l l z [ l b   & < = = + N T.U.  : 5 %   % p 2 C < o   - z x I { e.6.h z 0 9 u h [ ",
"v 0.I n h b h l } +.O.x j z x *   % ( 2.f O N > # / 3.) . $ L /.g.O   + b h m b j #.X.} z g u n g O.",
"6.u.+.8.P O.b v p.p.+.v n l ;   5 3.%X&X,..   . 6 ^ ( / ] /.:X;X`   . ; v n I b +.i.e.*.k z v $.n +.",
"9.0.p.0.I m b n 9.+.z } O.y     = ,.( / _ # . O 1 = p d v.*XS.d * * s m I +.I | 6.+.@.@.H } +.I b I ",
"$.O.9.P n m O.L y 0 - t y *   & o ; . o * o 6 @X~ W +XE D L =   ; P l u b n n @.n j } +.O.P #.| m b ",
"I b l k P 6.h.n j -   X X @   0 9 * t - i p 2 rXU.l.$XA p f =   - z I b u I $.h.P z z +.m P +.u.O.8.",
"I b H l P u.0.n v o     * l + y l b O.n P y O ! p A.,.X $ $ .   ; m 9.+.;.9.4.%.n n } | m +.I 0.6.7.",
"| 8.9.+.e.s.r.I * X   1 6.u.l v y.u.r.d.b *   1 5 ^ 5 + C C $   4.6.n %.u.N.s.| } 6.u.9.B.B.m O.4.6.",
"6.N.+.%.u.r.u.b = & 9 s s.I.r.m i.Z.9.6.= O 1 l.T $.Z -._._.0   b u.m O.u.N.H.7.| 7.B.4.6.C.s.7.%.+.",
"8.) 6.y.u.u...| n 9.o.k 7.0.4.+.%.p.$.m + i Q._.'._.R.'.oXQ.q @ . P a.@.#.e.4.;.#.#.p...6.6.J.H.@.O.",
"9.u.7. .e.m.{ ..#.9.O.z #.9.+.+.*.e...1 X C _.|.R.k.Q.oX|._.-.C o y 6.} [ @.6.m #.*.t.a.p.+.6.7.| @.",
"#.e.<.*.e.6.} } m } P j [  .| @.H.P.|   * T _..Xl.C R _.'.oX_.-.> z O.} z [ ..+.X.J.P.t.J.u.O.n z [ ",
"x | a...e.l n h e g n | [ x | | u.d.n   j._.|.|.l.. > ! _.|.Q.-.& 0 g O.@.[ j #.X.p.F...t.#.x O.X.} ",
"g +.| n 6.{ n n h u z P  .{ 4.| 6.6.l   j.'.|.c.G . + 1 j._.Q.-.> - w z } O.} 9.| i...{ n | v u.*.e.",
"v | } $.| ..| u c b n I  ...%.@.+.8.q   j.'.|.! & q q   Z R.'.R.G @ - l P +.@.@.#.+.6.O.k P | s.| n ",
"h g v +.@.6.} H P g l P | +.| 8.+.i   q R._.W.Z + l 0 X T Q.oXOXl.o - l m +.9.} 4.O.P O.P z +.$.s P ",
"j l n j *.u.| O.H z g P | +.I O.} a > !.|.W.U   . u y   G W..X.Xk.@ - l n +.4.m P n O.j z H | P l m ",
"b v O.x *.r.*.@.O.} n v v n P P } G > !..XQ.U   t c u   & D Q.oX-.X < n h n m P j [ } { z O.| m h z ",
"4.O.O.x [ +.} } *.p.6.n | I n j } Z > !.!.M.T   O.6.u     1 l.OXZ   a 4.n { n P z [ X...j m | 4.m 6.",
"6.9.{ z n | +.#.i.t.6.#.4.m O.+.+.K $ E.f.R U   +.1.z X   2 R..Xi & y.e.6.+.m v P | t.p.| I n | 6.u.",
"B.K.e.9.+.+.4.+.y.O.} e.p.B.N.O.0.G X & T S @   9.Z.F.%.  i -.f.q - n | u.d.K.0.I %.s.u.6.u.I P 9.n.",
"4.0.9.O.$.} 9.;.4.v @.9.| 0.u.z.h.f.J + * . . K 9.4.8.9.u . . > * A P %.u.0.0.7.4.0.v m +.6.6.0.9.9.",
"h.] ] %.9.b.0.m m 9.O.+.N.0.0.8 $ V p U.Y.1   { #.0.) 4.6.  1 Y.j.V V = 6 C.4.9.y.y.4.| v P 9.K.+.+.",
"9.6.6...+.+.$.O.n l z O.6.9.u.# U ,X@X^. XS   +.} 6.4.y.6.  S  X^.@X#XD # 9.N.n.+.+.| v +.9.n.y.@.@.",
"j 6.p.p.M.m g s u l P H [ O.%.= = ` W S ` 2 . n g z @.9.n.. 2 ! A T ! , = +.+.9.+.i.0.v I b O.9.| [ ",
"l O.6.j } x l y u l l l n j I K , , 1 < 7 7 7 P O.z +.+.m 7 6 7 , , = , D P z P O.6.4.l s Z a z O.b."
};
