/* XPM */
static char *result[] = {
/* columns rows colors chars-per-pixel */
"50 50 222 2 ",
"   c #020202",
".  c #0A0504",
"X  c #070905",
"o  c #0A0A06",
"O  c #06050A",
"+  c #0A0709",
"@  c #0C0C0B",
"#  c #07080A",
"$  c #130E0A",
"%  c #150D04",
"&  c #0E120B",
"*  c #0F1107",
"=  c #1A1007",
"-  c #12130C",
";  c #1A130D",
":  c #141B0C",
">  c #191B0E",
",  c #131007",
"<  c #0C0E12",
"1  c #131412",
"2  c #1B1611",
"3  c #161B12",
"4  c #1B1A14",
"5  c #1B1D1C",
"6  c #231B0C",
"7  c #2C1F07",
"8  c #231D16",
"9  c #221E18",
"0  c #1D240E",
"q  c #1C2313",
"w  c #1E231A",
"e  c #1A2413",
"r  c #23290F",
"t  c #382A0C",
"y  c #25320F",
"u  c #222414",
"i  c #242C14",
"p  c #292E15",
"a  c #22221B",
"s  c #252C1A",
"d  c #2A2C1C",
"f  c #2B251C",
"g  c #3B2C13",
"h  c #342D1B",
"j  c #253315",
"k  c #2C3515",
"l  c #2D3B16",
"z  c #253319",
"x  c #2C341A",
"c  c #2D3B1B",
"v  c #253916",
"b  c #323617",
"n  c #323C16",
"m  c #31361A",
"M  c #333C1C",
"N  c #393D1D",
"B  c #39311C",
"V  c #201E20",
"C  c #232423",
"Z  c #2B2B23",
"A  c #252C28",
"S  c #292C29",
"D  c #332D22",
"F  c #322E28",
"G  c #2D3322",
"H  c #2D3A21",
"J  c #2E312C",
"K  c #323323",
"L  c #3D3525",
"P  c #343D22",
"I  c #3A3F22",
"U  c #35362B",
"Y  c #363A2B",
"T  c #3B3B2C",
"R  c #3C352B",
"E  c #2F2E31",
"W  c #333435",
"Q  c #383632",
"!  c #3A393A",
"~  c #3A3D36",
"^  c #523B0B",
"/  c #443215",
"(  c #453B1A",
")  c #423B24",
"_  c #473B2B",
"`  c #403D3A",
"'  c #423D35",
"]  c #2E431B",
"[  c #334217",
"{  c #34421D",
"}  c #3B441D",
"|  c #36491D",
" . c #3C4A1E",
".. c #374917",
"X. c #2E4020",
"o. c #354322",
"O. c #3C4423",
"+. c #364A23",
"@. c #3C4A23",
"#. c #3C4429",
"$. c #3D4B29",
"%. c #3D5225",
"&. c #3E512A",
"*. c #3D4137",
"=. c #42441D",
"-. c #424A1E",
";. c #484B1F",
":. c #45511E",
">. c #4A531F",
",. c #5F4A19",
"<. c #664A15",
"1. c #77591A",
"2. c #6B5015",
"3. c #424523",
"4. c #434B24",
"5. c #4A4C24",
"6. c #414528",
"7. c #4C422E",
"8. c #444C2A",
"9. c #4A4C2B",
"0. c #484420",
"q. c #52492B",
"w. c #445224",
"e. c #4B5425",
"r. c #4B5A25",
"t. c #44522B",
"y. c #4A532B",
"u. c #46592B",
"i. c #4C5A2B",
"p. c #415827",
"a. c #535B2C",
"s. c #54572C",
"d. c #424333",
"f. c #454C32",
"g. c #42413B",
"h. c #45493A",
"j. c #4A4D3B",
"k. c #4B4334",
"l. c #524634",
"z. c #544A35",
"x. c #554C3C",
"c. c #435331",
"v. c #4C5532",
"b. c #4D5A31",
"n. c #4D513D",
"m. c #525532",
"M. c #535B33",
"N. c #535D3A",
"B. c #5C5637",
"V. c #6B5627",
"C. c #63553D",
"Z. c #6C5B3C",
"A. c #695836",
"S. c #735B22",
"D. c #4B612C",
"F. c #59662D",
"G. c #4B6235",
"H. c #5A6434",
"J. c #5A6A36",
"K. c #5D623A",
"L. c #556838",
"P. c #606F36",
"I. c #60643A",
"U. c #444542",
"Y. c #4E4D4D",
"T. c #4B4E40",
"R. c #4E5141",
"E. c #525543",
"W. c #535945",
"Q. c #575D49",
"!. c #595C4A",
"~. c #59584B",
"^. c #4D5253",
"/. c #585A55",
"(. c #6B5D41",
"). c #645843",
"_. c #6D5C55",
"`. c #5D624D",
"'. c #5D6655",
"]. c #62664F",
"[. c #6D6145",
"{. c #74654A",
"}. c #7C6C4B",
"|. c #746848",
" X c #656B54",
".X c #696E56",
"XX c #67645E",
"oX c #6C715B",
"OX c #7A645E",
"+X c #696864",
"@X c #656964",
"#X c #7C7A74",
"$X c #7A6B62",
"%X c #856315",
"&X c #826F4C",
"*X c #88764E",
"=X c #8B7A54",
"-X c #877552",
";X c #947E5A",
":X c #987C73",
">X c #938155",
",X c #9A855E",
"<X c #9D895D",
"1X c #968359",
"2X c #A38C5D",
"3X c #A7905F",
"4X c #9C8760",
"5X c #9A8667",
"6X c #A48C62",
"7X c #A98B63",
"8X c #AC9464",
"9X c #A99568",
"0X c #B6996A",
"qX c #A79573",
"wX c #BBA47A",
"eX c #C6AC7F",
"rX c #939998",
"tX c #A59C97",
"yX c #A2A3A4",
"uX c #C39F92",
"iX c #DFD8D4",
"pX c #F9DFD1",
/* pixels */
"{ 8.{ l l [ v k {  .6.x n n P m }  .} l y k M l l } +.N k l k j k k O.n m k { M l  .+.} j j j O.k M ",
"@. .} @.{ { k v  .@.O.M N M M 4.y.5.u.y j x c c l l j P f.f.{ j x } 4.{ b n { l :.u.4.%.z x M N N o.",
"4.t.y.4.{ } c j @.+.c N 3.-.@.4.4.8.+.l > - - @ o o o o   R H c m 5.@.N { { 4.@.@.| +. .c o.{ P j { ",
"n } O.] [ n c c { c v O.N n N } M P k : Z.;X6X-X}.}.|.C.  @ & q x P m k o.M n } ] l [ } o.o.M l l c ",
"5.N P z ] 4.8.{ O.n b p I O.} { l m x o 7X6X}.(.}.-X8X,XL o     P M { k p P O.4.c M M } ] M 3.8.n O.",
"6.x x j { w.8.N 8.@.4.3.8.t.@.M x o.p . 8X6X6 < 8 f }.7X<Xl.@   x O.4.} 4.9.8.6.H c [ } } O.O.v.9.5.",
"k N =.}  .r.e.y.4.c O.w.4.-.O.O.y.k o + eX}.OX:X:X:X_ -X8X;X'   I { x { 8.4.-...O.y.w.;.5.w.} =.9.$.",
"4.m... .F.r.e.>.-.M o.i.B.I.v.} w.s @ E ).! iXpXuXOXyX~.&X6Xz.  > 5.c H 4.s.F.5.} 4.i. .9.s.a.y.n.8.",
"O.( 8.w.4.-.-.-...8.+.@.;.0.3.4.@.d @ C . E yXtX_.5 rXW C.4XC.d $ M 3.#.&. .=.} #.o.b...} } J.J.c.+.",
"t.9.8.4.t.v.} } } t.{ ] 4.3.N @.t.x @ {.{.Z < @ o o @ O (.1X*X=X9 m 8.{ ] @.=.N #.v.D.r.r.3.y.y.{ ] ",
"&.v. .| 6.N M P P o.c c +.O.3.o.M.K z.<X6X|.*.'.'.@Xw   C.4X(.4 @ M P m ] +.o.O.{ L.J.w.P.t.L m m o.",
"M @.t.@.t.l x j z x M @.c m 6.o.N.h.) ,X6X,X5 Z A A <   4 h 4   > z d P { P P #.-.N.K.-.s.9.K I o.m ",
"z o.o.n } M o.c q z m I N c 6.O.$.O.2 6X7X6Xo . = $ 6 + a <   3 s q s x o.O.O.9.3.y.+.{ N { n M.4.t.",
"c #.M @. .@.@.j k l m M +. .@.O.O.O.+ 4X3X3XZ.g S.V.1.z.wXk.3 L.3   q p n o.w.8.O.9.} N d O.O.M.O.m ",
"k k M  .{ 3.o.k c j x { O.4.} @.O.>   D =X2X8XV.g %X/ <X8X&X) w H o o > P 4.y.o.#.O.N n P K O.O.x P ",
"x x c v &.i.O.x l m d n O.3.3.} > X o   _ 4X6X*X% V.0.4X7X9XC.  &.P @   s 6.6.O.{ N N n P P O.P z M ",
"M P H z @.w.N c H O.j l M m x u   1 H   -X7X<X_ 9 {.<X6X7X=XR   H L.X.<   s b N c c o.} k M [ M x M ",
"} { { x M n k c @.i.5.b N I u   @ o.+.  }.,X1X;X4X6X<X;X<X_     O u.u.o.  i n M c | } -.N M } O.o.8.",
"y.4...{ N [ }  .i.e.y.4.O.} i   o.u.#.  d h D 6X8X9X-XK D l.L     1 H t.X k } } {  .D.r.} -.M +.t.M.",
"M.F.w.} O.} -.=.w.n o.y.w.r.M   $.H @   X 4 ' z.7._ f   & _ L   q e w e   M a.t.{ -.r.u.w.w.O.m 4.9.",
"9.s.4.O.3.} 4.} } [ | %.-.s.N   q w s e & n.qX+ < 2 2 9 o.e o & &.G.c #   n m.5.} @.[ [  .@.4.%.@.3.",
"6.=.=.3.8.y.y.O.}  .+.o.y.y.N   # P L.&.o x.9XO B.4X>X=XX & H u.G.G.u.H   O.q.;.4.t.@.| @.O.y.D.| +.",
"w.-.=.o.} -.O.#.P m c o.@.4.I   X.u.G.G.: x.9XO [.0X2X(.< 5 ! o.t.c.&.+.  P 8.y.+.+.O.l  .6.b.v.o.o.",
"] } 4.} 8.n c M x v c H l c P   +.t.&.b.: l.qX  (.[.R 4 C Y.XXC c &.o.s   c { 8.@.t.4.b N c I 6.O.n ",
"m O.O.N 4.x j x i x x c ] x P   w X.&.$.o k.5XX l.$ < W Y.Y.S   e c.w     c l { n p.;.k o.q 0 i l M ",
"n w.O.m k m k c { O.O.v l c x O   e &.c o d x.  $ < U.Y.W 2 2   c q o X p k M m n @...{ c j j m k { ",
"4.t.6.#.m O.m M i.i.O.c M M c P o X e c u o   1 ! < W C O   @   4 < - > x N I m @.t.@.%.j c N O.M O.",
"9.9.i.9.I N m m m.t.{ { { O.o.6.x -   > 0 O < U.+X< < $ o   .   9 F 3 O s I O.N O.@.$.+.H ] O.I m I ",
"I O.8.P M } O.P O.N x m P c o.o.x i : X = 6 O W ! @ % <.<.$ o f (.{.2   $ M P +.{ c { o.o.P O.} n m ",
"I m x z P 6.f.P n } m x O.O.O.P j q @ 7 2.<.= O 1 $ t <.^ B l.=X-XC., $ 0 N #.8.P c M O.N I @.y.O.O.",
"#.m H x N i.9.N } } =.O.8.3.O.x : O / %X%X%Xt   S 8 , = h B C.}.) - a I O.5.3.$.M M N } { O.N 9.9.8.",
"} 6.8.O.w.a.w.8.6.v +.9.y.s.} 0   . g 2.t g /   4 1 2 g.^.5 D u > x m @.t.m.s. .{ 4.y.8.m.M.P O.O.5.",
"4.v.O.$.y.e.y.y.5.x j I 5.a.y.-   @ , 7   o & 5 n.`.Z ^.#Xw a . m y.N o.t.B.H.9...4.M.O.8.B.a.-.4.#.",
"6.( 5.y.t.y.4. .O.t.0 q > u > o O x q - o 1 U W..X XK V.B.o 4   - O.w.+.+.4.0.=.@.@.i. .4.5.J.J.+.o.",
"8.y.4.+.w.i.[  .@.8.c &     o : + N  .i o Z Q. XQ.n.) ^ 7 @ Z 3 X i 4.{ ] %.4.N @.p.r.r.a.} 8.8.+.o.",
"4.:.p. .t.O.[ { M { x #   o i { j s.O.    Z `. Xj.Z 2 h u U n.*.1 x o.o.v ]  . .| J.J.>.J.t.} M c ] ",
"x } w. .w.n c j r r * o   3 {  .e.y.n   ~ ~. X.Xn., 4 *.h.`.E.*.& i c o.+.] c @...r.F. .r. .z O.| { ",
"x { { c 4.{ N m y 0 - > i 0 O.} @.8.m   h.].].W.U O o C R.`.W.Y & : q x { { ] 8.} u. .{ { +.x t.:.w.",
"c } { #. .| } x k k d P { l O.O.O.6.s   g.`. Xd.: 4 5   G E.`.n.C   e k P O.@.@.@.O.4.{ z o.} a.} M ",
"l y M O.+.4.{ m P z c P } O.O.#.O.f   3 n.`.Q.Y @ d i   U W..X.Xj.+ - c { O.6.{ O.#.P { U c O.3.x m ",
"l k M ] %.y.} o.o.m z M } o.O.O.{ d & E.].W.U + . p u X U W..X Xh.o : x N O.6.N { P { l c H } M m P ",
"b M o.v %.e.w.+.o.o.N M N N c M { Z 1 !..XW.G   4 n p   3 R !..Xh.X 4 P l M M O.c ] { { c {  .N j n ",
"O.O.{ v ] } { ] %.i.4.{ } P P c { Z 1 !.).R.Y   O.} i     4 j.oXZ   q @.c N n P c { .. .n M } 3.N 4.",
"4.8.{ n m O.@.4.r.u.w.@.3.} O.O.@.U 1 !.h.*.U O O.>.k     5 n.oXs * 8.w.4.} N m c } r.i.} O.m O.t.y.",
"M.K.w.8.O.O.3.O.t.{ { w.i.M.m.O.9.S   1 T Z o   8.M.M.6.  a h.j.w - P { r.s.B.9.P @.a.y.8.t.I K 6.v.",
"3.9.8.P O.{ 9.I 6.{ @.8.} 9.v.8.8.d.J o - o . Z 4.3.8.8.s . @ - @ S { t.v.9.v.5.3.9.N N } 5.8.y.t.6.",
"f.) O.6.9.c.9.N N O.+.I m.9.6.8 $ w 9 ` U.4   { @.3.) -.@.  4 U.g.5 a ; 8 N.5.6.t.t.3.} N P 8.N.@.O.",
"4.3.4.@.+.o.#.O.M x x O.4.9.t.= S :X+X/.+XZ X O.{ 5.4.8.4.  Z XX/.@X:XD % 8.v.m.O.O...l O.4.v.y.+.+.",
"M @.m.u.M.M z j p x P H { +.@.; 2 ` Q S ` 4 . N v c @.8.b.. 4 ` S W ` 2 ; o.@.9.o.i.9.m I m o.8.+.M ",
"k O.$.l { k x p i x x x M k I K 2 ; ; 4 8 8 9 c o.c O.O.m 9 8 a 2 2 - 2 D P x I o.4.4.x d d s c o.&."
};
