/* XPM */
static char *_89adaafc4e545b682ee62f09280771d1bSu4XJvEWV2LWpc[] = {
/* columns rows colors chars-per-pixel */
"50 50 244 2 ",
"   c #020404",
".  c #030906",
"X  c #050D0A",
"o  c #0B0D0A",
"O  c #0D0D06",
"+  c #140D0B",
"@  c #180906",
"#  c #0E110D",
"$  c #09140D",
"%  c #11130E",
"&  c #1A110C",
"*  c #13190E",
"=  c #1C1A0E",
"-  c #0D1513",
";  c #0D1913",
":  c #131511",
">  c #1A1611",
",  c #151B13",
"<  c #1B1C14",
"1  c #1D1F19",
"2  c #0C0F10",
"3  c #24130C",
"4  c #2C130D",
"5  c #231A0D",
"6  c #241B14",
"7  c #2C1C14",
"8  c #221F19",
"9  c #281913",
"0  c #331511",
"q  c #331B15",
"w  c #3B1B16",
"e  c #250A08",
"r  c #1C2314",
"t  c #1E2914",
"y  c #1D231A",
"u  c #182717",
"i  c #1C260F",
"p  c #25320F",
"a  c #222415",
"s  c #242C14",
"d  c #292E15",
"f  c #23231B",
"g  c #2C251D",
"h  c #242C1A",
"j  c #2A2C1C",
"k  c #2A2513",
"l  c #34241C",
"z  c #3C251D",
"x  c #332A1D",
"c  c #3B2819",
"v  c #263215",
"b  c #2B3515",
"n  c #2D3B16",
"m  c #25331A",
"M  c #2B341A",
"N  c #2D3B1B",
"B  c #253916",
"V  c #323616",
"C  c #333C16",
"Z  c #31361B",
"A  c #333C1C",
"S  c #393D1D",
"D  c #252520",
"F  c #2D2C23",
"G  c #262922",
"H  c #342C24",
"J  c #3C2C24",
"K  c #332D2B",
"L  c #2D3322",
"P  c #2D3A21",
"I  c #2A312A",
"U  c #323424",
"Y  c #3B3326",
"T  c #343C21",
"R  c #393E23",
"E  c #35332A",
"W  c #3B332A",
"Q  c #3D392D",
"!  c #363B2E",
"~  c #2A3531",
"^  c #393732",
"/  c #431C17",
"(  c #44251C",
")  c #49231C",
"_  c #443B1F",
"`  c #542B1E",
"'  c #432C23",
"]  c #472924",
"[  c #532D25",
"{  c #453125",
"}  c #44352B",
"|  c #49352B",
" . c #453B2E",
".. c #4A392E",
"X. c #493624",
"o. c #53332A",
"O. c #5B3A2D",
"+. c #563729",
"@. c #443D33",
"#. c #4A3D31",
"$. c #523D34",
"%. c #5A3E37",
"&. c #643C2D",
"*. c #2E421B",
"=. c #2D4317",
"-. c #34421D",
";. c #3B441D",
":. c #3B4A1E",
">. c #35481C",
",. c #354322",
"<. c #3A4221",
"1. c #3C4423",
"2. c #364A23",
"3. c #3D4B23",
"4. c #3D4529",
"5. c #3E4C29",
"6. c #3E5223",
"7. c #35412B",
"8. c #424A1E",
"9. c #45461F",
"0. c #46521E",
"q. c #424524",
"w. c #434B24",
"e. c #414528",
"r. c #444C2A",
"t. c #4A4C2B",
"y. c #494A24",
"u. c #56472B",
"i. c #445224",
"p. c #4B5425",
"a. c #4B5924",
"s. c #45522B",
"d. c #4A532B",
"f. c #4C592A",
"g. c #475928",
"h. c #535B2C",
"j. c #585D2F",
"k. c #454234",
"l. c #4C4235",
"z. c #4C4339",
"x. c #4B493B",
"c. c #464738",
"v. c #534234",
"b. c #5C4334",
"n. c #534B3C",
"m. c #5A4B3D",
"M. c #58463A",
"N. c #4D5431",
"B. c #4D5832",
"V. c #445231",
"C. c #515633",
"Z. c #545B32",
"A. c #545C3A",
"S. c #585736",
"D. c #654C3C",
"F. c #684938",
"G. c #754837",
"H. c #64513B",
"J. c #7B5A3C",
"K. c #6B482A",
"L. c #5B652E",
"P. c #596233",
"I. c #5B6737",
"U. c #4B602E",
"Y. c #606638",
"T. c #494B43",
"R. c #524B42",
"E. c #5C4D42",
"W. c #514540",
"Q. c #4C5244",
"!. c #5B524B",
"~. c #595146",
"^. c #694D43",
"/. c #7B4F42",
"(. c #6A5942",
"). c #6B544B",
"_. c #6C5A4D",
"`. c #665348",
"'. c #765949",
"]. c #645C52",
"[. c #6A5C52",
"{. c #6C5451",
"}. c #775E54",
"|. c #7A664A",
" X c #676359",
".X c #736253",
"XX c #7C6255",
"oX c #74645C",
"OX c #79685A",
"+X c #7B7659",
"@X c #7D6C61",
"#X c #756663",
"$X c #797466",
"%X c #87592F",
"&X c #875846",
"*X c #845E51",
"=X c #985B4E",
"-X c #856545",
";X c #877248",
":X c #8D6253",
">X c #83635A",
",X c #876859",
"<X c #956757",
"1X c #967857",
"2X c #937148",
"3X c #A1774D",
"4X c #A27755",
"5X c #876B63",
"6X c #8C7465",
"7X c #867466",
"8X c #967869",
"9X c #8A7C75",
"0X c #947C74",
"qX c #A37867",
"wX c #A37F76",
"eX c #96815E",
"rX c #AB885E",
"tX c #B68E57",
"yX c #898179",
"uX c #988478",
"iX c #928464",
"pX c #AD8C6C",
"aX c #A58769",
"sX c #B8936C",
"dX c #A88777",
"fX c #B8977A",
"gX c #A89171",
"hX c #9A908A",
"jX c #AB9489",
"kX c #B49285",
"lX c #BA9484",
"zX c #B69B94",
"xX c #A3918A",
"cX c #ABA18F",
"vX c #B8A59A",
"bX c #BDA489",
"nX c #B8AAA8",
"mX c #C79E96",
"MX c #C09F83",
"NX c #CAA285",
"BX c #C7A599",
"VX c #D0A999",
"CX c #CDB1AB",
"ZX c #C8C7C2",
/* pixels */
"-.r.A C N =.b b -.;.4.Z V C R Z 3.w.-.n p b -.n n -.2.A n n b v v V 3.V V n >.A n 3.-.>.v s B <.b S ",
"3.:.>.3.-.>.b B 6.3.;.A S A V w.p.w.g.p v A -.-.:.:.>.>.>.-.-.v v 9.w.S b C -.n 0.g.5.i.v N N A V 1.",
"w.s.d.w.>.>.N v 3.:.N S 3.9.3.w.w.r.1.n *.,.A n >.s.s.i.s.-.A M Z w.w.A A -.w.3.:.3.3.>.N ,.,.A b -.",
"C ;.1.*.n C n N -.N B R S C S -.C T -.>.A A n C C C -.-.-.n >.N v A Z M ,.T C ;.N C =.>.,.,.A N N N ",
"y.S P m -.:.r.-.,.S V d R 1.1.-.N A ;.A N <.q.A T s r u * r V Z M N ;.b s R R i.A *.A ;.=.A q.w.S 3.",
"e.M Z b -.d.w.R r.8.w.3.r.t.3.C M ,.;.;.4.Z P r > f D , y , ; # $ # i s A r.r.r.T M ;.;.S 4.4.d.r.w.",
"n C ;.;.8.a.p.d.w.N 1.r.w.:.3.<.p.i.w.<.a o o x.7X8X|.).#X].@.c.e.g : - f Z A A 1.p.i.8.p.t.;.<.t.e.",
"w.Z.;.:.L.a.p.0.w.N ,.h.j.Y.C.;.s.d.r , o - n.pXVXNXgX9X:X<X5X0X1XXXQ y !.).F m N 1.f.:.y.h.j.p.N.r.",
"<.X.w.i.w.8.8.8.>.w.2.6.9.9.y.1.N = K T.a ..kXBXzXCXnXkX0X7X1X8X5X!.@.' $.)..X`.E u r.:.9.;.L.I.V.2.",
"d.t.w.i.t.C.;.;.;.i.*.*.3.q.S a X ~ _.^.(.aXkX0X8XiX9X0XnXnXbXjX9X].W.$.3 > D.qX7Xk.r A a.3.f.d.,.-.",
"5.N.6.>.r.A A ,.T ,.A N >.Z ; $ u.9X@.+.lXhX}.5X6X-XH.J.3X$XuXBXmXpX,X[.k.. o F.sXfXoXH s.d.U V C ,.",
"*.1.s.3.s.M b m h M T 2.s   a |.pXH.< (.aX5XXXD.v. .U | K.g h 8XCXcXaXdX7X~   J $XgXsX}.T r.U 4.T Z ",
"m ,.,.C 1.A -.N s s Z h y !.>XaX X7 M.lX6XQ E U ;XtX8XQ.I O.[ <  XjXzXmXdXoXg 4 {.].0X8XR S Z Z.w.s.",
"N 4.A :.:.3.1.v b N C , W 3XqX8X~ #.uX7Xl.R J.tXcXBXkX8X}.W [.o.z dXVXnXxXwXE.r ] %XaXOXL T <.S.;.P ",
"b b A 3.-.w.-.B n v M * Q.8X,Xz.+ &X+X .%.gXBXmXhXzXCXnXVX,XW.OXf #.0XzXmXjX5Xg 4 _.BX5XL T 4.1.M P ",
"M M N B s.d.1.M b A h $ r 8Xm.o c 3XT c *XnXhXkXnXZXnXpXpX$Xw #X].j @.8XfXvXpXx.6 W @X`.j A 1.T m T ",
"Z T P B 3.y.;.M T 1.M , * J.v.@ u.sXE . _.6XQ } 5X>XZ dX9X}.[ ^ jXE H J.|.aXbX X@ x :XY d A ;.A m A ",
";.-.-.M C C b N 3.f.w.b ; F w > 6XuXg $ $.@.$.  & W.XXjX$X].=X6 yXz.| v.l.'.zXuXG ; &.S C C -.1.,.r.",
"p.i.>.A A >.;.:.f.p.d.3.u & ` (.qX!.- ; q H :X< <XaXn.3 &X#XQ * {.z.@.} $.D.1XNX XO h f.>.w.Z 2.g.Z.",
"Z.P.0.>.q.;.w.;.w.=.,.4., H 8XpX}.+.; O q o 4 ^ nX+X  & ] O.+ . [ y H #.@.n.'.+XxXM.s g.i.p.1.N e.t.",
"t.d.y.<.3.S w.;.:.C >.# 6 -XaXwX%.#.9 o q y w k.^ 9X{.) 9 q J F 0 # , { | b.H.H.dX9X/ b :.8.w.6.3.9.",
"y.q.9.q.r.p.d.q.;.>.t ; ].aX|.^.v.l.( + & < | { @ Y kXmX>XG 8 D - X + 8 [ l.b.K.1X0X*Xi 3.<.f.f.>.3.",
"r.8.;.<.3.8.1.1.N t 7 -XuXOX..Q  .Q E % X # > ` M.| [ $X8X3XY o & 4 X 6 O.@.] [ '.8X9Xx b r.N.N.1.,.",
"-.>.w.-.t.M C A s f _.dXOXn...f < ' E % # % + : , 6 o : g Y 6 o > q 7 4 ' @.| | E.-X.X X* Z R q.;.N ",
"A ;.1.A w.M d M a ;XrX{.) q y % o 9 1 # o % % o H ;X2X/ @ 4 H 2 o f ..0 : } v./.}.Q.m.5XT t i d b *.",
"-.y.1.Z M C b N Z }./.e # + * r f 1 o : : - + 0 O.~.} = K *X#.X o 7 J : . 4 | oX<X&X6X$XU r d A b ,.",
"8.s.w.e.T ;.Z h x { F . - < M m 7 J f , % % o - J [ { 1XdX@.o % : + & 8 G > # G  XoXE { 9 ; M <.A 1.",
"r.t.d.t.R S d o , o < 2 % m ,.F 8 ] @.G o # % # Y [.'.2X^.o X o o f < W $.f r = f g J (  .* R R Z S ",
"R 1.w.T Z A j f Q o > > j N 1.m g #.H < a a , % . O e + O o o % D  .8 < f 1 h 1.M l ) q @.o.M <.V Z ",
"R Z M M T w.R F ^.7 X d 4.R 4.N h g f m T 4.e.a : , 1 1 8 8 F @.| ) & o o a R 4.r U J y o.'.m d.1.4.",
"R M P M A d.R y G.K o d w.w.3.N m Z ;.-.,.<.r.r.1 > f W #.Q H } a + > a M e.q.M 1 W 4.} %.~.x r.r.t.",
";.e.5.3.i.h.,.6 m.n.1 , A h.w.S d.d.i.Z.h.;.N ;.V < o 8 < o - + < h M 3.d.C.h.b 1 o.v.@.n. .3 M 3.w.",
"w.f.1.5.f.p.w., D.~.n.< * j.p.;.N.A.5.w.S.h.;.V C ;.T d j L M <.t.t.A ,.s.S.P.d ) F.v.! R.| < V 3.4.",
"e.X.w.i.s.d.A > Q.z.m.F X U e.1.3.d.1.3.w.h.I.T P <._ e.r.r.d.r.q.3.i.3.3.w.q.5 ' !.@.O.z.l a B.2.2.",
"t.d.w.:.3.f.b h  .l...Q 3 , M 3.6.a.a.h.w.;.p.>.,.i.w.3.:.6.s.2.5.3.6.-.=.6.3.5 J x.Q G.O.x r e.-.3.",
"3.6.0.6.g.;.N m ! b. . ./ + , -.L.Y.U.L.h.;.A C =.:.p.3.6.i.1.,.>.-.,.T N *.:.k X.l.| $.G.I r C N N ",
"b ;.i.:.i.Z n s ( F.....x ; # t w.C.8.a.y.M <.>.=.B 3.d.i.:.C b v t b ,.2.*.b M J {.v.k.D.> < ,.>.-.",
"M ,.-.C 3.;.A C m  .x.#.E q o : ;.w.S ;.<.4.i.a.:.B 3.2.>.:.=.B N t s M ,.-.-.T f *Xm.x.'.H r d.0.i.",
"N >.A 4.;.:.>.d M - m.F.} ' : # <.q.;.v Z w.p.w.N N >.1.4.1.:.A d M M M A 1.5.,.y &XD.#.,XF s h.>.A ",
"n p A 3.2.w.-.M m . | R.#.L # r <.C S N C w.y.j Z Z v N ,.,.>.T M v v N A 1.3.A h _ z.$.'.l A e.j T ",
"N b A *.6.f.-.,.P , y } #.8 # j A ,.C N N ;.A Z R Z M M N r.d.1.s M N m A 1.y.;.s > z.n.D.c T A M ;.",
"Z C ,.B 3.f.3.2.,.t : H #.o # P >.r.T N -.;.C M C C A N N s.s.;.m N Z Z b A Z T v y T.G.F.u S -.d n ",
"3.S -.B -.;.V >.6.4.; f f # : N A 3.w.-.A ;.;.A y.w.A T P -.A v b :.h.r.A A A T N , ( '.T.m ;.;.S w.",
"w.r.-.N C <.3.3.g.g.v y % o i 1.3.Z.p.;.;.C S d.h.0.;.-.N N S S w.d.d.i.w.3.S Z N t H `.@.T A <.s.d.",
"Z.I.r.r.4.<.q.3.s.-.-.3.j + N.,.r.A.d.r.r.<.M e.h.P.h.w.3.1.3.q.q.r.Z -.f.f.H.r.T Z l ` e.t.R T w.N.",
"q.t.r.<.<.,.r.9.e.A 2.s.<.4.t.e.y.A R w.w.p.d.p.q.q.e.w.1.<.3.q.<.<.,.s.f.t.d.p.w.r.3 c R w.r.t.r.r.",
"c.R R r.V.r.s.S S r.1.<.d.t.r.d.r.r.R A ;.N.A.-.3.t.9.<.3.3.d.s.S ;.r.<.t.A.e.w.r.N.s A A T r.P.3.,.",
"w.y.w.;.1.1.1.1.Z M M 2.r.r.N.2.,.<.Z 1.r.d.N.<.-.w.y.w.r.-.-.5.4.U M C 3.r.C.C.,.1.;.C q.5.N.V.2.3.",
"N 9.d.f.A.A v j d M Z ,.*.,.w.4.s.r.b -.N -.3.A B N 3.r.N.B.A b M d j Z N ,.2.r.1.d.s.Z R C <.r.,.*.",
"B 1.r.n -.B M d s M m N -.M -.-.5.N.N P h h M Z ,.N 3.R T ,.N s k s M v N ,.M R <.w.w.M j j h N 7.5."
};
