/* XPM */
static char *result[] = {
/* columns rows colors chars-per-pixel */
"50 50 224 2 ",
"   c #140B06",
".  c #1A0D07",
"X  c #170E09",
"o  c #1A0E09",
"O  c #1D120C",
"+  c #17120E",
"@  c #1E1711",
"#  c #1F1913",
"$  c #21140D",
"%  c #2A160E",
"&  c #25180F",
"*  c #2C190F",
"=  c #221611",
"-  c #251A13",
";  c #2B1D15",
":  c #251F19",
">  c #2C1E19",
",  c #291710",
"<  c #331D13",
"1  c #3A1D13",
"2  c #351B0F",
"3  c #1C260F",
"4  c #25320F",
"5  c #2D2016",
"6  c #252D15",
"7  c #292E15",
"8  c #2C231B",
"9  c #212C18",
"0  c #282A1C",
"q  c #322216",
"w  c #3B2216",
"e  c #33241B",
"r  c #3C251C",
"t  c #34291E",
"y  c #3C291E",
"u  c #263214",
"i  c #2B3514",
"p  c #2D3B16",
"a  c #263319",
"s  c #2C341A",
"d  c #2D3B1B",
"f  c #323616",
"g  c #323C15",
"h  c #31371A",
"j  c #333C1C",
"k  c #393E1C",
"l  c #2D2A21",
"z  c #362620",
"x  c #3B2722",
"c  c #332B23",
"v  c #3B2D24",
"b  c #3C2E29",
"n  c #2E3B21",
"m  c #353224",
"M  c #3C3226",
"N  c #343C22",
"B  c #393E23",
"V  c #37362B",
"C  c #3C342B",
"Z  c #3B3B2C",
"A  c #37392D",
"S  c #3D3B32",
"D  c #43261C",
"F  c #432A1F",
"G  c #4B2B1C",
"H  c #442316",
"J  c #423E1F",
"K  c #502A1D",
"L  c #432D23",
"P  c #4A2E22",
"I  c #422E28",
"U  c #532E24",
"Y  c #582F25",
"T  c #433226",
"R  c #4B3225",
"E  c #43342B",
"W  c #4B352A",
"Q  c #443A2D",
"!  c #4B392D",
"~  c #433E20",
"^  c #523325",
"/  c #53362A",
"(  c #5A362A",
")  c #543A2D",
"_  c #5A3A2D",
"`  c #583626",
"'  c #433C32",
"]  c #4C3C32",
"[  c #463E38",
"{  c #523D33",
"}  c #5B3D31",
"|  c #613F2F",
" . c #633E32",
".. c #2F401C",
"X. c #34421D",
"o. c #3B441D",
"O. c #364A1D",
"+. c #3C4B1E",
"@. c #334117",
"#. c #3F501F",
"$. c #2D4020",
"%. c #354322",
"&. c #3C4423",
"*. c #374823",
"=. c #3D4B23",
"-. c #3D442A",
";. c #3E4A2B",
":. c #3B5020",
">. c #3E4831",
",. c #3E4732",
"<. c #424A1E",
"1. c #43441E",
"2. c #46521E",
"3. c #424624",
"4. c #434B24",
"5. c #494C26",
"6. c #42442C",
"7. c #444C2A",
"8. c #4A4C2B",
"9. c #5E412F",
"0. c #52472B",
"q. c #445224",
"w. c #4A5324",
"e. c #4A5924",
"r. c #45522B",
"t. c #4A532C",
"y. c #4C5B2D",
"u. c #535B2B",
"i. c #54562E",
"p. c #444434",
"a. c #4A4236",
"s. c #454B33",
"d. c #494C35",
"f. c #444338",
"g. c #4C4439",
"h. c #464B3B",
"j. c #4B4C3B",
"k. c #544135",
"l. c #5C4234",
"z. c #54453B",
"x. c #5C453A",
"c. c #544A3C",
"v. c #5B4C3D",
"b. c #594832",
"n. c #455231",
"m. c #4C5333",
"M. c #4E5833",
"N. c #4C523B",
"B. c #515534",
"V. c #535A33",
"C. c #53543D",
"Z. c #5F513F",
"A. c #535B3A",
"S. c #5A5B36",
"D. c #66402E",
"F. c #644334",
"G. c #6A4435",
"H. c #624539",
"J. c #6B473A",
"K. c #644A3B",
"L. c #694C3C",
"P. c #674836",
"I. c #734C3C",
"U. c #7A4C39",
"Y. c #754936",
"T. c #6C513C",
"R. c #76543F",
"E. c #4B602E",
"W. c #5A6434",
"Q. c #5A663A",
"!. c #5E692D",
"~. c #606F37",
"^. c #4F4742",
"/. c #4E4A43",
"(. c #534C41",
"). c #5B4D41",
"_. c #4F5042",
"`. c #535342",
"'. c #5B5245",
"]. c #545943",
"[. c #5A5C44",
"{. c #5B5849",
"}. c #624C42",
"|. c #684D43",
" X c #774F40",
".X c #794F40",
"XX c #6D5243",
"oX c #65554A",
"OX c #635D4C",
"+X c #6C5A4C",
"@X c #695549",
"#X c #735444",
"$X c #735A4C",
"%X c #7B5C4B",
"&X c #7A5646",
"*X c #6C5C52",
"=X c #7D5F52",
"-X c #745A50",
";X c #5C6447",
":X c #626748",
">X c #756255",
",X c #7B6659",
"<X c #6D6352",
"1X c #5E6C62",
"2X c #7F6F64",
"3X c #84614F",
"4X c #8C6656",
"5X c #836559",
"6X c #8C6C5C",
"7X c #876856",
"8X c #926C59",
"9X c #96735B",
"0X c #8E6E61",
"qX c #8E7164",
"wX c #947463",
"eX c #9B7B6B",
"rX c #977768",
"tX c #A17F6B",
"yX c #A07F72",
"uX c #9F816D",
"iX c #9F8271",
"pX c #A2806C",
"aX c #A98976",
"sX c #B59684",
/* pixels */
"X.7.X.p p @.p u X.o.6.h h j N h 1.+.X.p 4 i j p p X.=.p p i p u i i &.k f i X.X.p #.X.X.a 4 a B i k ",
"=.+.o.=.X.X.p p :.=.o.j k k h 4.w.r.r.i i g X.X.O.:.O.O.o.X...u i 1.4.X.i g X.p 2.r.r.q.a s d X.j *.",
"4.r.w.=.X.X.a p =.O.d k o.+.3.4.4.7.r.N.OXC.j.6.o.q.r.r.q.X...a s 4.4.h j X.4.O.*.+.=.O.d %.%.X.i j ",
"g o.-...@.p d d X...u &.k g X.o.s./.Z T ! ! g.(.(.N.7.;.X.X.X.d a j h h %.j k o...p @.X.%.X.j d p g ",
"5.k n a @.=.r.X.&.k f 7 B &.N.f.Z C M C S ' f.' ' [ ' S S h.n.4.N d o.i 7 &.&.4...j k o.p X.&.8.j &.",
"3.s d i X.q.4.B 7.+.4.&.m.j.c ' g.a.[ g.f.[ [ [ g.j.c.g.S m C h.;.&.=.+.<.7.6.7.d d X.o.k &.3.t.7.4.",
"i k <.o.<.e.w.t.4.d ;.C.g.C [ a.a.z.z.b.x.b.a.' C [ c.(.).g.[ C m p.-.%.4.4.<.@.&.r.w.<.5.t.o.&.8.7.",
"4.i.@.#.u.u.w.2.4.d.V c C M ] g.z.v.T.R.&X#X}.v.] E ] ).{.).b.b.! R y p.m.i.!.5.o.4.y.+.5.i.u.w.N.8.",
"&.~ 4.r.<.<.<.q.C.y 5 M E g.z.z.Z.%X8X9XrX6X=X*XoXa.Q ] (.k.l.L.F.G.#XL.c.C.1.o.-.*.y.+.o.o.!.~.n.*.",
"8.8.4.q.t.B.7.K./ ! M Q ^.[ z.oX$X9XuXuXeX0X6X,X>Xb.] ] ! r 9.3X.X3X7X5X%Xv.C.k -.m.y.q.e.=.t.r.X...",
"r.m.+.O.7.s.+XL. X} Q z.^.z.OX,X7XuXeXrXpXrX6X-XoX'.^.[ E ; R $X0X0XrX8X3XXX:X&.X.W.W.e.~.t.m f d j ",
"d *.r.=.8.{.$X5X=XQ S /.[ z.2X2X6XrXaXiXaXaXwX=X@X*X(.! m e y v.0X4X8X4X4X%X@XN.=.V.Q.&.u.8.m B X.j ",
"a %.%.p =.OX5XwX$Xz S [ ^.x.*X,X9XaXsXaXrXyX0X=X$Xx.z.b.y z t ) }. .I. XU.I. .<X4.m.=.k k k j V.4.8.",
"d -.j =.A.+X4X8X,Xv C f.^.(.*X$XqXrXeXiX0XrX3X@X).x.{ k.a.M y L / J.F. .( U Y L.:X7.o.k a B o.S.o.n ",
"i i j =.OX#X&X . .z c E { z.}.XX-X0X,X,X%X#X#XL.P L W { C E y w D _ I. XJ.U Y  .+X8.k g N N 3.*.s n ",
"s s d %.|._ _ F.J.e l E x.x.H.L.$X5X#X .l.} #XL.[ I W ] v x e r w < P G.J.( ` F._ N.j g m N &.N a N ",
"h N n s.{ D } I./ , 8 Q k.l._ D ) |.^ / 9.b.l.Q 1Xk./ { > q F W ^ w % w D D _ I._ C.&.@.i k k h a j ",
"o.X.j p.R U J.F.r $ = E ! l.W < 1 D H _ l.XX/ y ! / XX! > w R ) D.G 2 * q w _ Y.| z.r.<.j g X.=.*.7.",
"t.w.o.B.) D D D < w > b { ) R D / P H _ L.P.W D P x.,X! ; R R D.F.G G R ^ ` ` / L M ;Xe.+.+.N *.r.V.",
"u.W.4.B.K.U q 2 5 L q e E b._  .K 1 r I.U.l.l._ ^ }.$X! q l.b.) R P R G.U.Y.^ w q M ;Xe.<.r.&.j 4.5.",
"8.i.4.m.v.R G K P y q > r { l.G._ D L 3X9XK.R H.x.|.x.] y W ) R P L R P. .J.R b L E p.r.O.4.7.:.=.3.",
"6.1.1.3.B.Z.| Y.U._ r ; t T x.#XG./ / &X8XF.F / _ P / E L P T ^ U r L P P / Q { E v E ].4.&.w.y.O.*.",
"7.<.o.*.=.[.K.U.U./ r ; - q } J.F.P R P 9.) _ K D r / e R W W D r ; ; z I L W { ! v v C.m.4.M.M.*.*.",
"..o.4.o.m.c.! ` | / E z - , { / / P x L ! k.! w W ( { 5 R W R ; ; = @ x E W E W ! P L z.N.d B &.k h ",
"j o.&.j m.a.y L L R L E e - T x.} { W { k.{ { v W _ W e I P q $ ; 5 C ' E v L L k./ L g.s.9 3 7 p j ",
"g w.&.h N j.L R R L x 8 - - - C z.}.K.} { z.{ Q { ! x > L r $ O & t C.d.> e I I k.) E p.%.a 6 j i %.",
"4.r.4.6.B C.M ) l.I L x e - - O = b z.{ } z.{ { { x z x y % O $ - ' ].Q v ) E E ! W C h.n d j &.j B ",
"7.8.t.8.B j.Q k.k.E ! } T e - ; $ @ - e v x z x z x I y > $ $ O 5 ^.`.M ! { E ! k.E C h.N X.&.B h B ",
"B &.7.%.h d.' b ! W ! ).] b l c > : ; = o o @ ; v W L ; % , $ O c `.j.b ] ] E ] a.M Z N.&.j =.o.j j ",
"B s s s %.m./.T k.] E z.z.E Q f.> ; ; - = = = > x L < ; > ; O - h.N.g.E z.] E ' W v S d.h B &.t.&.&.",
"B s s s j M.`.C ] ] E ] x.! b f.z = : z z 1 > e t x x y z > $ m C.`.C L ] E M E E c ,.&.o.&.j t.4.8.",
"o.6.4.=.r.u.A.C I Q C ! z.Q v j.f.> - > b I x b E T I z z : , j.A.d.C E ! v b C v m d.8.V.B.B k 3.4.",
"4.B.&.=.y.w.B.' v E v M { ! y N.(.5 , - z z x b E I z > : = c [.S.C.Q M F t M m t m ].4.4.S.i.4.=.&.",
"3.~ 1.r.r.r.t.h.t C v y E E t N.s., $ $ @ - 1 > > > > > = : N.t.6.d.Q t q q y e t C ;X=.4.4.Q.W.*.*.",
"t.t.4.+.4.e.=.N.0 z M t t M 8 d.j.; $ . o $ $ o o $ @ = O l N.=.;.m.p.8 5 q 5 5 0 V Q.e.y.o.w.4.*.*.",
"=.q.:.#.r.o.X.h.c 8 e q 5 z - N.[.1 % $ $ $ o C > $ = z 8 p.7.%.X.=.s.8 q t 5 5 ; V :Xe.Q.r.&.j d ..",
"i o.q.+.q.f d s.l 5 5 q q q - m.C.v < * < * ; A./.; e v S `.X.p u s ,.: - ; > ; - l :X:.e.=.i *.X.X.",
"a *.X.j 4.X.%.N.0 5 5 5 ; ; - N.{.! I L L L D [.r.f.v Q z.;X..d d 9 A 8 & - 8 - : 8 `.o.@.X.d t.2.q.",
"h o.X.-.+.#.=.p.= : - - @ - 8 n.(.R W / _ U _ ! ,.h.Z ] '.;XO.X.a s h.8 & ; 8 = @ 8 h.s.a $.o.u.o.j ",
"p 4 h =.X.=.;.f.@ @ - - & O 8 N.z.L I U _ ( F.) p.h.a.z.{.s.X.h s s ,.c - - - $ @ O 8 h.h.s.8.6.s N ",
"p d d ..r.t.N.A + O = - - O 8 s.`.W R ^ _ _ G.K.6.{.^.(.].r.t.&.0 d s.l O = = @ + + O O @ @ 0 Z h.6.",
"h h *.d r.m.d.# O @ @ O O O l -.n.E 1 w D H ^ c.`.(.(.].>.r.w.7.A Z e O     X O O X o $ $ o . o Z p.",
"3.7.>.-.S m @ X O O O X X . + A s.N.Q q w w R k.).(.`.s.n ;.p.T q * $ $ o     O - O   O 8 z e ; 8 B ",
"7.{.8 o X X o O - O O     . O O < a.j.C.[.g.! v.<XA.;.%.%.f.q 1 2 * $ $ O + # 8 M m m -.' p.-.(.`.M.",
"[.8 . $ - o $ - 8 & O X X . $ % q 2 ; `.B.d.d.C.V.u.V.q.4.s.M v T f.-.-.8.6.C.8.-.-.u.t.7.m.B h 4.m.",
"C ; m c 8 z m C Q p.>.Z Z V a.6.Q T 8.m.7.t.t.w.4.3.3.4.*.-.4.3.&.&.j r.M.8.8.8.3.8.j &.o.4.7.t.7.7.",
"p.M p.6.Z 7.s.&.-.7.&.-.t.8.7.r.7.6.B j &.V.B.X.=.8.~ 3.=.=.n.8.j &.7.&.t.A.6.3.s.t.1.o.k X.7.A.=.%.",
"7.5.3.+.&.*.*.-.h s s %.7.t.r.-.o.B j &.4.r.B.*.X.4.3.4.7.X.X.=.&.h h h =.4.B.B.*.o.@.f &.7.m.t.*.*.",
"d 1.t.y.M.j a a 7 s m d $.%.4.;.r.8.d d d o.&.X.d d =.7.M.M.X.i s 7 7 h d *.-.7.-.r.w.h B j -.=.%...",
"p -.=.p X.p a 7 6 h s d X.p j X.=.m.d n 9 9 a h %.d *.B h %.d a 6 0 s a d j s k %.4.=.s 0 0 6 j %.n."
};
