/* XPM */
static char *_74733c81025462dead579c95171d9916XlM2G2koq0TqRp7[] = {
/* columns rows colors chars-per-pixel */
"50 50 241 2 ",
"   c #010403",
".  c #030A06",
"X  c #040C0A",
"o  c #0C0E0B",
"O  c #0A0706",
"+  c #130E0C",
"@  c #1B0E0B",
"#  c #1C0704",
"$  c #06110C",
"%  c #0D110D",
"&  c #0D1C0E",
"*  c #11130E",
"=  c #1B130D",
"-  c #111B0F",
";  c #181A0F",
":  c #0D1511",
">  c #0F1B12",
",  c #141511",
"<  c #151A13",
"1  c #1A1C14",
"2  c #1B1E1A",
"3  c #191714",
"4  c #230905",
"5  c #26130D",
"6  c #3B140E",
"7  c #211C14",
"8  c #2B1C14",
"9  c #271914",
"0  c #391A13",
"q  c #330E0C",
"w  c #1C2314",
"e  c #1D221B",
"r  c #1B2816",
"t  c #1C260F",
"y  c #25320F",
"u  c #212216",
"i  c #252D14",
"p  c #292E15",
"a  c #23251B",
"s  c #2C241C",
"d  c #252D1A",
"f  c #2A2C1B",
"g  c #36231A",
"h  c #253314",
"j  c #2B3515",
"k  c #2D3A16",
"l  c #25321B",
"z  c #2C341A",
"x  c #2D3B1B",
"c  c #253817",
"v  c #333C16",
"b  c #31361B",
"n  c #333C1C",
"m  c #393D1D",
"M  c #333616",
"N  c #1C1B22",
"B  c #1D2623",
"V  c #262B23",
"C  c #2C2B23",
"Z  c #2D2A26",
"A  c #322A22",
"S  c #3C2B24",
"D  c #3A2F28",
"F  c #2E3324",
"G  c #2E3B22",
"H  c #2C342A",
"J  c #333224",
"K  c #3A3325",
"L  c #333C21",
"P  c #393F22",
"I  c #34342B",
"U  c #3C352B",
"Y  c #3C392C",
"T  c #353A2F",
"R  c #2D3634",
"E  c #3D3D33",
"W  c #3A3A34",
"Q  c #41130F",
"!  c #481B14",
"~  c #551D18",
"^  c #49231C",
"/  c #53231B",
"(  c #413E1F",
")  c #422C24",
"_  c #492B24",
"`  c #532B21",
"'  c #5B2A25",
"]  c #43352A",
"[  c #443B2D",
"{  c #4C392C",
"}  c #483427",
"|  c #58382C",
" . c #433C32",
".. c #4B3D32",
"X. c #433833",
"o. c #583931",
"O. c #65382A",
"+. c #753F35",
"@. c #6B3932",
"#. c #2D431A",
"$. c #2E4216",
"%. c #34421D",
"&. c #3B441D",
"*. c #364A1E",
"=. c #3B4A1E",
"-. c #334117",
";. c #2E4020",
":. c #354322",
">. c #3C4423",
",. c #364A22",
"<. c #3C4B23",
"1. c #3D4428",
"2. c #3E4C29",
"3. c #3E5222",
"4. c #3E423A",
"5. c #424A1E",
"6. c #45461F",
"7. c #46521E",
"8. c #424524",
"9. c #434B24",
"0. c #494C26",
"q. c #414629",
"w. c #444C2A",
"e. c #4A4C2B",
"r. c #484420",
"t. c #564A29",
"y. c #445224",
"u. c #4B5424",
"i. c #4B5924",
"p. c #45522B",
"a. c #4B532B",
"s. c #4C592B",
"d. c #525B2C",
"f. c #55572B",
"g. c #444233",
"h. c #4B4335",
"j. c #4C453B",
"k. c #4E4A3B",
"l. c #464C36",
"z. c #534336",
"x. c #5C4333",
"c. c #55453A",
"v. c #534A3C",
"b. c #5B4938",
"n. c #4D5431",
"m. c #4E5833",
"M. c #445231",
"N. c #515633",
"B. c #545B32",
"V. c #545C3A",
"C. c #595737",
"Z. c #66482A",
"A. c #634B3D",
"S. c #664938",
"D. c #774535",
"F. c #68573A",
"G. c #775A37",
"H. c #6E5A2C",
"J. c #5B652E",
"K. c #596334",
"L. c #5C6738",
"P. c #4B602E",
"I. c #606636",
"U. c #3F4940",
"Y. c #534B43",
"T. c #5D4A41",
"R. c #535344",
"E. c #59564B",
"W. c #50534C",
"Q. c #6A4D45",
"!. c #6C5246",
"~. c #685649",
"^. c #74584A",
"/. c #685E55",
"(. c #765B55",
"). c #69645A",
"_. c #796658",
"`. c #6F634B",
"'. c #6D6B63",
"]. c #7D6D63",
"[. c #796966",
"{. c #777367",
"}. c #7D7872",
"|. c #814C3E",
" X c #835835",
".X c #8D6735",
"XX c #895449",
"oX c #885F58",
"OX c #8D5446",
"+X c #A25C40",
"@X c #866347",
"#X c #886659",
"$X c #986658",
"%X c #8C7254",
"&X c #967857",
"*X c #897146",
"=X c #A36F43",
"-X c #836C64",
";X c #8A6C65",
":X c #897566",
">X c #947B6D",
",X c #9E7D6C",
"<X c #957568",
"1X c #967B72",
"2X c #8C736D",
"3X c #A17A73",
"4X c #9E8358",
"5X c #A7864D",
"6X c #A9865A",
"7X c #B28957",
"8X c #AD905B",
"9X c #9C8363",
"0X c #8C8379",
"qX c #96867B",
"wX c #8C8566",
"eX c #A98667",
"rX c #A58478",
"tX c #AC9876",
"yX c #B3926B",
"uX c #C89475",
"iX c #988D86",
"pX c #91918C",
"aX c #A58983",
"sX c #B58E84",
"dX c #A8938B",
"fX c #B3958A",
"gX c #BA958A",
"hX c #B89586",
"jX c #B79A93",
"kX c #A39B94",
"lX c #B9A397",
"zX c #BBB19E",
"xX c #A8A29D",
"cX c #BBBAB9",
"vX c #B4A9A7",
"bX c #C59C89",
"nX c #C59E93",
"mX c #C9A397",
"MX c #C8A180",
"NX c #C1B2AF",
"BX c #CBCAC4",
/* pixels */
"%.w.%.k k -.c j %.&.1.b v b P b &.5.%.k y c -.k k &.,.n k k k y p j >.m M y *.L k 3.:.&.h r j >.j m ",
"<.=.&.<.%.%.c c y.=.>.b m m b 9.a.y.p.c h b &.&.=.,.*.&.&.%.%.h j 5.9.m v v -.k 7.y.2.3.h x k :.b >.",
"9.p.a.9.%.%.k j 2.*.x m =.=.9.9.9.9.=.k #.:.n k &.p.p.y.2.&.k c z 9.9.n n &.<.=.=.<.3.*.x :.:.P k %.",
"v &.>.#.$.v n k %.k c >.m v m -.k >.%.%.k m k v k k %.*.%.n %.x l n b z :.n m %.%.k $.%.:.:.b k k k ",
"0.m G l %.5.w.%.:.m M p P >.,.&.k L &.x n >.9.P >.m m #.x k 9.9.n #.&.M p P >.w.k L v &.$.n 8.w.m >.",
"8.z x j %.p.9.P w.9.9.>.w.e.<.b z >.&.m >.1.p.9.f r w 1 w r x z f n <.&.=.w.w.w.L c m &.%.1.>.a.q.9.",
"j m &.&.5.i.u.a.9.k >.0.9.5.>.&.p.u.y.f.u.b w $ 3 B * a e : , $ . X * w >.9.5.-.1.a.7.7.t.u.&.>.n.8.",
"9.N.&.=.J.i.u.7.9.x :.d.B.L.m.&.y.B.5.P 3 O H _._.#XQ.].'.c./.V.{ C o W  .u n 2.&.9.P.&.9.d.d.a.l.w.",
"&.] y.y.9.5.5.=.&.y.,.<.7.6.r.8.<.e.< X + V *XmXMXyX0X#X$X>X1XeX-XE.s E.#X~.W A & :.s.=.6.&.J.L.M.<.",
"a.e.9.y.a.N.&.&.&.p.%.#.<.8.m 1.>.. H T   >XbXvXnXcXfXrX-X&X:X;XW.E { Q a ^.eX[.4.> :.u.u.<.s.a.&.#.",
"2.s.=.*.q.n n :.P :.k x %.2.1.z $ ] _.I H.mXiX1X4XpX2XjXcXmXhXfX-X(.Y.z.. < o.eXyX[.D z L.p.L M k L ",
"n >.p.<.a.j z l d l P ,.L z l   R './ ;XzX_.#X>X&XG.b.+X%X).sXnXgX7X#X{.T   e @XaXtX&XX.y.a.J Y :.L ",
"l 1.:.v =.k %.k y d n n n < : t.yXE.< 5X,X-X$Xz...J U | q.3  .hXcXqXhXsX#XR 4 o.}.`.dX!.v m n B.9.p.",
"z ,.n >.=.2.>.h z j b z % < G.tX(.4 T.gX)...H U 5X&X'.4.H D.K : -XjXnXhX>X_.a V D..X9Xc.d P >.B.>.n ",
"z j %.<.&.9.%.c k i z <  .>X<X;XB o.iX8X[ F .X8XxXbXrX$X/.K -X' { hXjXxXfX>Xv.4 _ >XmXY.J L 1.>.h L ",
"z z k c 2.s.1.z c n p , F.6XoX(.B #X0XH v.7XnXjXpXmXNXlXmX(.g.'.1 D :XnXjXkX#XV s Y.:Xc.z n 1.L l L ",
"b L x l 9.y.n G x 1.h < ).>X!., 5 =X1.| <XvXjXgXNXBXvX6X&X).Q {._.V X.&X6XtXyXY.# { $Xf j n &.n c L ",
"&.%.:.j n v j k 2.a.>.. 7 <XU O H.9XN 7 ;X3Xl.!.qX#XJ dX:X^.o.H jXZ ] G.Y.;XjX'.% e D.m v m -.<.:.w.",
"a.y.*.%.v &.&.=.i.u.p.w 7 F...# !.yXZ . Q...H . 7 Y.#XdX'./.OX7 {.b.] X.z.|.eXbXY.. d s.&.=.L ,.p.B.",
"d.K.7.&.>.&.5.8.9.-.>.9.- 1 0 V rX'.< < _  .$X, XXeXY.@ OX_.Z , A.Y U {  .R._.wXqX[ t i.9.u.>.x 9.e.",
"e.f.9.>.8.&.9.&.=.$.*.y.d @ Z.%X$Xx., o 8 o 0 V zX:X  @ A | @   ^ < e h.[ x.A.~.rXqX0 j =.<.9.3.<.8.",
"q.6.6.>.w.a.a.&.&.=.,.G < K ,XtX~.x.2 X 0 e q g.4.2X(.` 0 8 S I q * % s ^ z.A.Z.%X0X$X1 &.>.a.s.%.<.",
"p.5.&.&.&.5.>.2.n b x < 7 @X&X1XS.l.` @ 5 , ] ..4 7 3XnX1X .7 s : $ * * } h.] ` G.$XiX[ p q.N.m.>.:.",
"%.-.9.>.w.b k n j z r $ E.,X_.x.o. .] , $ : < ~ c.j.' ).-X7Xb.o * Q o * ' [ } ] Y.@X_.:X3 x >.>.&.v ",
"b &.1.n 9.z j j i d % G.>X#X{ Y T Z  .2 o , o = 2 2 O % 3 s u * % = ] Q = Y E O.Q.W.q.;Xv.w t p c %.",
"m u.P n j b i k %.- k.,X:Xk.v.s $ 6 ) 1 o * , % * b.6X@.# 5 _ 1 + $ Y ] X 5 ` ^.$XOX#X1XE.w i n h :.",
">.w.9.q.L z o u p.h.7XoX} 6 : , : , , o * , % = / v.b.s 1 ^.^.1 o * Q , , , + 3 W.2X). .~ ; n >.m >.",
"w.a.a.e.P * V 3 1 [ %XQ $ * * J a I 3 : , o * o 3 | ) t.uX_.* : , * , , ..U e w * V [ a & h >.P b n ",
"P >.9.P z e v.s o ^ Y % , % d :.> 6 S T 3 % * % * T./.G.&XA O , $ , [ , ] A 1 x g ) 0 z.s z <.&.m b ",
"P z z l f a D.g $ * $ * o w :.L w A E K , 1 < * , X @ 4   X X , 3 Y _ % $ o f G e _ a a XXa 6.a.>.8.",
"1.f x z w g /.e o 1 , * u 9.>.x d A ] , z >.w.P , * < e 7 s s I z.S 6 * , 1 m a A E E / /.] x e.q.9.",
"&.9.2.:.w o.^.V * w w b d.a.9.-.p.w.f a.B.=.c m m * 3 V Y ..I A A % $ u w.N.s.w g | h.[ v.g 3 >.9.9.",
"9.N.P l 7 R.Y.C.2 , x e.f.I.a.m s.V.1.9.B.f.=.b M &.1 . w 3 X o o f k :.a.C.K.5 O.Q.[  .Y.g u 5.9.1.",
"q.( 8.x J z.] v.2 o ,.:.u.e.8.<.2.s.<.>.9.K.K.:.x P m b J z b L q.8.y.,.,.9.r.* Y R.[ D.U 8 d L.,.:.",
"p.a.9.n H j.] z.< o G #.2.w.>.>.3.i.i.d.9.5.u.:.;.y.r.>.*.y.p.>.2.,.y.%.#.3.5.9 { ..] | +.H r 9.:.,.",
"9.y.y.%.` S.U [ ! * l k #.*.&.<.K.I.i.L.i.m m k #.3.u.9.3.y.>.>.%.&.:.L x #.=.p A ^.c.g.A.3 r m k %.",
"j %.y.=.[ x.] ..9 * < :.#.j -.=.s.d.5.i.9.z >.&.$.$.<.a.y.=.k c c t l :.,.%.k :.< (.Q.g._.] 1 &.*.#.",
"h >.:.k & U.j.{ r % * k *.$.8.>.<.9.m &.>.1.y.i.*.c ,.<.%.*.#.#.x i p c %.%.%.w.w Z.S.U #XK r a.7.y.",
"b =.%.L   t.S.] / * % f &.*.<.1.>.r.m h n 9.u.9.x G %.>.q.*.*.n d h L j n >.2.,.:.. l...E.~ L f.&.n ",
"c y m l % W Y.{ a * : z &.&.&.1.8.M &.k b 9.8.z n z h x >.:.&.n z h i z n >.9.%.<.1 4.c. XJ f 8.f x ",
"v c %.V < s ..{ < o w n &.>.>.>.n >.n c k >.n b m b M l x y.a.1.i z z l n 8.w.n n x . @./.H L L b P ",
"m b #.d % A .., o w b k v n G n %.9.%.x %.&.v j b m n x G y.y.%.h n b G c n M n x %.r ] T.F 9.-.h v ",
">.m #.c % s 3 % , p.9.v m n L k %.<.9.%.m &.&.m 0.5.m L G L n p j <.d.9.m m M P c #.$.q 0 m &.&.m 9.",
"9.w.&.k l < * * :.s.9.=.&.m %.>.<.m.u.&.&.b n a.d.7.=.:.k c &.&.9.a.m.y.<.&.m b n &.u.x &.>.b >.w.a.",
"B.L.w.w.>.F   h p.%.&.y.a.d.N.>.a.V.a.e.9.m b 2.a.B.K.9.>.>.<.8.>.q.n &.s.u.I.e.P >.d.a.u.l.P n q.m.",
"8.e.w.:.>.:.L [ 8.n ,.w.>.a.e.8.8.n >.8.9.a.a.a.9.8.8.9.>.>.1.8.>.P n p.m.e.n.e.8.w.m &.&.9.9.e.p.q.",
"l.P P q.M.w.e.P P <.:.>.N.e.w.M.p.q.P n &.m.m.&.>.0.] 5.<.<.p.e.m P e.:.e.V.8.q.p.p.6.&.m P e.K.<.>.",
"9.r.9.<.>.:.>.>.n z k :.w.e.a.,.:.m L >.q.a.m.>.%.9.9.y.y.%.:.<.1.n z n <.w.N.m.>.>.-.v >.w.M.M.,.:.",
"n 8.d.s.m.n h l p f n G #.:.<.2.p.w.k L x &.<.n c k <.e.m.m.P h j p p n k :.1.w.>.p.p.b P n >.2.%.#.",
"c >.<.v %.z z p f z z x :.j %.%.1.n.k G d a l x :.k 1.>.G :.x h i i z f x G k P >.q.9.z f f f x :.M."
};
