/* XPM */
static char *d57b98cd07a443449edb14dbc3a77c1btjEOyAetbFfCbXUV[] = {
/* columns rows colors chars-per-pixel */
"50 50 214 2 ",
"   c #0C0401",
".  c #150B06",
"X  c #190C06",
"o  c #160E09",
"O  c #1A0E09",
"+  c #1D120C",
"@  c #17110D",
"#  c #1E1611",
"$  c #22140D",
"%  c #29150C",
"&  c #24180F",
"*  c #2E190F",
"=  c #391E0F",
"-  c #221711",
";  c #241A13",
":  c #2A1D15",
">  c #241F18",
",  c #2B1E19",
"<  c #341E14",
"1  c #381D15",
"2  c #1C260F",
"3  c #25320F",
"4  c #2D2116",
"5  c #252D15",
"6  c #292E15",
"7  c #2C231B",
"8  c #212C18",
"9  c #2B2C1C",
"0  c #272018",
"q  c #322217",
"w  c #3B2216",
"e  c #33241B",
"r  c #3A251B",
"t  c #34291E",
"y  c #3B291E",
"u  c #253214",
"i  c #2B3514",
"p  c #2D3A16",
"a  c #253319",
"s  c #2C341A",
"d  c #2D3B1B",
"f  c #253817",
"g  c #323616",
"h  c #333C15",
"j  c #31371A",
"k  c #333C1C",
"l  c #393E1D",
"z  c #2E2921",
"x  c #352621",
"c  c #3B2721",
"v  c #342B22",
"b  c #3C2C23",
"n  c #3D2D28",
"m  c #2E3A21",
"M  c #353124",
"N  c #3B3126",
"B  c #343D21",
"V  c #393E23",
"C  c #3D342A",
"Z  c #353C28",
"A  c #3C3A2D",
"S  c #37362B",
"D  c #3D3C31",
"F  c #3E3630",
"G  c #41251A",
"H  c #43291E",
"J  c #4A2B1E",
"K  c #48271B",
"L  c #423E1F",
"P  c #442D23",
"I  c #4B2E23",
"U  c #552F24",
"Y  c #443126",
"T  c #4C3225",
"R  c #433B24",
"E  c #44342B",
"W  c #4B362B",
"Q  c #44392E",
"!  c #4C392E",
"~  c #533225",
"^  c #583326",
"/  c #53352A",
"(  c #59362B",
")  c #543A2D",
"_  c #5B3B2D",
"`  c #443C32",
"'  c #4B3D32",
"]  c #533E32",
"[  c #5A3E31",
"{  c #613C2D",
"}  c #623E32",
"|  c #2F401C",
" . c #34421C",
".. c #3B441D",
"X. c #3C4B1E",
"o. c #35461C",
"O. c #2E4120",
"+. c #354322",
"@. c #3C4423",
"#. c #374823",
"$. c #3D4B23",
"%. c #3E432A",
"&. c #3F4C2A",
"*. c #3D5223",
"=. c #3E4232",
"-. c #424A1E",
";. c #43441F",
":. c #46521E",
">. c #424623",
",. c #414E26",
"<. c #434B24",
"1. c #41442B",
"2. c #444C2A",
"3. c #494C2A",
"4. c #4A4B25",
"5. c #5C402D",
"6. c #504E27",
"7. c #445224",
"8. c #4A5325",
"9. c #4B5A26",
"0. c #45522B",
"q. c #4A532B",
"w. c #4D5B2D",
"e. c #535B2B",
"r. c #515B25",
"t. c #444334",
"y. c #494137",
"u. c #4A4335",
"i. c #454A34",
"p. c #4A4D34",
"a. c #464339",
"s. c #4D443A",
"d. c #474B3A",
"f. c #4B4B3A",
"g. c #544234",
"h. c #5C4234",
"j. c #54453A",
"k. c #5B453A",
"l. c #534B3C",
"z. c #5B4C3C",
"x. c #534D37",
"c. c #445132",
"v. c #4C5432",
"b. c #4D5935",
"n. c #4C513B",
"m. c #515533",
"M. c #525A34",
"N. c #52543C",
"B. c #535A3C",
"V. c #59593A",
"C. c #644335",
"Z. c #6B4534",
"A. c #63463B",
"S. c #644B3B",
"D. c #6A4C3C",
"F. c #6A4839",
"G. c #734C3D",
"H. c #744936",
"J. c #66513F",
"K. c #4B602E",
"L. c #58652C",
"P. c #5A6535",
"I. c #5B6A36",
"U. c #5B653D",
"Y. c #606F37",
"T. c #4C4640",
"R. c #544D41",
"E. c #5A4D41",
"W. c #545442",
"Q. c #5A5344",
"!. c #565B42",
"~. c #595C43",
"^. c #5D5B49",
"/. c #595449",
"(. c #624F43",
"). c #6B4D41",
"_. c #625244",
"`. c #6C5344",
"'. c #6A564B",
"]. c #675B4B",
"[. c #755545",
"{. c #735A4C",
"}. c #7C5C4C",
"|. c #775545",
" X c #6D5C50",
".X c #755E51",
"XX c #5E6042",
"oX c #626A47",
"OX c #64654C",
"+X c #6E6251",
"@X c #696B51",
"#X c #7C6255",
"$X c #766457",
"%X c #687149",
"&X c #81624A",
"*X c #836455",
"=X c #8C6654",
"-X c #82675A",
";X c #83695A",
":X c #8A6A5B",
">X c #896B57",
",X c #916C5D",
"<X c #94745E",
"1X c #906E60",
"2X c #8F7161",
"3X c #947463",
"4X c #9B7C6B",
"5X c #997967",
"6X c #886A60",
"7X c #A07F70",
"8X c #9E806D",
"9X c #9F8170",
"0X c #A18272",
"qX c #AB8C79",
/* pixels */
" .2. .h p | i f  ...@.j j j B k -.@...p 3 p k p p o.$.k p p i u i i @.k g i o.k p *.o.o.a 8 i @.i k ",
"$.X.o.$. . .p i *.$.@.k l k j <.8.<.0.f u d  .o...$.o...o. . .u i -.4.k p h  .p :.0.&.7.a d p l j @.",
",.0.8.,.o.o.p u $.X.d l -.-.>.<.<.2.X.p d &.i.f.V.XXB.0.&.+.d d s <.>.l k  .>.$.X.$.$.o.d +.+. .p  .",
"h ..@.m p h p d  .d f @.k h  .l p Z $.0.d.R.l.s.' ! 1.f.n.@. .p u B j s B +.h ..| p h o.+.+.k j p p ",
"4.l m a  .X.2.+. .l g 6 V @.#.2.i.a.t.y.t.` ` ` ` Q C C D a.p.p.B k o.p 6 @.B 7.| k h ..| k @.2.l V ",
"1.s d i  .q.,.l 2.<.<.@.2.v.f.A F ` s.f.s.` a.' y.s.y.y.y.t.` t.d.2.,...<.2.2.>.m d  .....%.@.3.2.,.",
"i h X...X.r.8.q.<.p %.3.f.Q Q t.f.R.j.y.` ` ' k.z.S.z.g.s.s.y.` t.f.t.2.3.<.-...@.q.7.-.6.4...@.3.,.",
"<.M...-.e.r.8.:.<. .i.u.R ! g.x.E.R.j.' ' R.(.{.}.}.}.`.z.j.s.' E C S A f.V.P.8...<.w.X.4.r.L.q.n.2.",
"@.R 4.7.<.-.-.-.X.~.z.D.F.F.F.h.g.' ' ' E. X.X:X<X5X<X>X{._.k.s.' E n n Q g.V.1.&.+.w.X...;.I.I.c.$.",
"3.3.<.7.3.v.....m.].{.;X*X}.[._ E ` ` j._..X-X1X5X4X4X5X>X.X'.l.T.T.' E ] C.`.Q.n.b.w.7.9.@.q.q. . .",
"&.q.$.o.2.k k %.!.{.*X1X1X:X[.! c C ' /.'..X:X5X9X9X8X4X3X$X$XQ.j.T.` Q [ [.|.{.OXoXI.9.Y.q.V s j B ",
" .$.0.$.0.p i m ^.}.=X,X=X*X`.E t E ] E.'..X6X4X9X0XqXqX4X-X$X_.T.T.` F ` {.:X#X+X@XV.-.e.<.M V  .d ",
"a +.B h X.k +.i._.G.|.H.F.).[ P c W ] k.(.{..X3X4X4X9X7X3X-X X/.R.y.` F ` }.,X,X.X@Xc...k ..k e.<.0.",
"d %.k #.X.$.$.W.} ^ { } } ( I c N ` ' ! ) k.[.}.*X-X6X6X;X.X).(.j.' C v P } ).|.[.+XV...9 B ..V.#.d ",
"s i  .X.o.,.@.]._ U } G.Z.~ G 1 c E W W E ] J.J.h.A.).}.-X'.S.k.j.] n x x [ Z.C.C.S._.2.Z B >.#.9 m ",
"s s d f &.q.p.g.{ ^ } } ( G r y r t n ] ] Q.z.h.h._ ( _ ).[ I [ h.] Q 7 ; P } C./ / j.p.V l %.B a l ",
"j B d a $.<.v.z.Z.( K w < w J ~ P r t g.[ ' W T C.A._ J T G 1 T _ ] Q 7 ; 1 T [ _ ~ ) x.B l l j a k ",
".. .+.d k h 2.z.Z.5.G w < w ^ 5.T H r ] {.[ P I _ A.h.J K T J T ) ' E e q e r G J I ) l.1.l  .$.+.0.",
"q.7.o.k k ..p.u.~ _ ^ ^ J J J 5.[ ) P R '.k.I ) h.A.G.5.G K ^ ( [ ! c e e r r w w I h.J.3.<.k #.0.M.",
"e.P.:...@.X.m.t.r G 5.H.Z.) I T ) ( E P E.).} A.T S.=X[.~ T _ A.h.! x e r P ~ ~ ~ _ z.U.w.8.@.j ,.4.",
"3.6.4.@.%...V.` N y ) Z.Z./ P I T E Y P ! ) ( ) Y 5.&X|._ / } F.[ P t < r I { G.Z.S.V.0.$.,.<.*.$.>.",
"1.;.-.%.2.e.^.E Y ' W ) I P y H I I Y P c T c I ~ ( } ] T I ) h.] P : : c I } Z.Z.z.!.&.$.@.0.w.o.$.",
"2.-.;.....M.Q.N P ' W E n e : : r P T T t T ( I P W ] W Y Y / [ ) c : x Y E / / T ' W.&.,.2.v.M.#.+.",
" .o.<.o.2.i.R.P E / E E W c 0 ; : q P T c E ) W E ! ] ] ] ] ] [ ! e : , x P Y P Y R l.%.B k V @...j ",
"d -.%.k <.i.l.R T T P n E Q ` v ; ; < c r x E ] W ! ] ] h.k.k.E t : ; < t y Y / T W N.&.k 8 2 5 i  .",
"h <.V k i %.s.W ] ] E r e N f.=.4 $ $ < c c x E ] ] j.h.] ! c , ; ; , b R T W ] g.s.n.&.d a 5 l i +.",
"<.3.,.1.B >.Q A W ' E E P n t.R.N ; $ - < c c c n n c n c e ; ; > : e E ] ' W ! ! u.W.c.a p l B j @.",
"2.3.q.3.V @.i.F n W W ! ' ! y.W.t.: $ - ; < P Y c , ; + # - : , x v N ' ] ' ! ! T i.W.&.m  .@.V k B ",
"V @.2.+.j k p.y.E ] ' ! ' ' ` f.f.S - - % ; , c n x ; + - ; , , v a.Q ' ] ' W ' ! a.n.&.V l @...k j ",
"V s s s B 2.n.d.C Q ' Q ! ' ' a.f.f.7 - , , 1 e 1 1 , , , e , ; v a.n ' j.! Q ' Q t.d.@.k V $.q.@.@.",
"V s s s l q.p.i.F N E E F ' Q Q d.W.t.: , x x E n n P x P x , , C f.n ! ] ` N E N t.i... .@.l q.2.4.",
"..1.&.$.7.e.q.p.F v E E n E ' N f.~.n.n : , x c E W n c n x ; ; Q W.F E ' n n Q N t.M.<.m.M.l V >.<.",
"<.m...,.9.q.q.3.u.M N N n b R E s.^.v.f.t > , , c n c c 1 - - $ n l.` N R c b N x p.B.$.<.V.e.-.$.%.",
"1.L 4.<.7.q.<.,.p.A t v N y y n t.V.&.i.1.7 ; : , - - ; - O $ $ x ` i.n t t y v 9 f.XX$.,.<.Y.P.#.+.",
"2.q.<.X.7.0.o.0.N.a.7 e t q 4 t t.M.9.M.p.M ; # + O X O O $ + $ q f.n.N q q q q e a.U.9.9.@.<.2.o.$.",
"<.:.*.*.0...h +.i.t.7 7 4 q 4 e p.%XK.I.V.t.7 4 ; ; S n - % % * t t.d.M 7 q q 4 7 f.%Xw.I.8.V k | | ",
"i o.7.X.7.j p m %.t : 4 4 q q t s.XX-.r.m.f.E x 1 F !.~.b < 1 , c y.t.S : q 4 4 0 t.XX7.9.$.i +.o.o.",
"s #. .p <. . .i.D > : : 4 4 0 t p.v.....f./.y.E S f.B.l.P P I P E l.f.A ; ; ; > > A !.$. .+.p q.-.7.",
"j .. .%.X.X.$.f.z > > : : ; & j t.>.l i i.OXl.Q ` n.n.' / / ( W E ' d.S ; + ; ; ; z n.&.s +.@.e...d ",
"i 3 k $.+.<.&.f.z - ; > : : : C p.l  .d @.OXE.' s.f.f.] [ ( ( ~ I ' t.S ; ; ; & # 9 d.=.Z d ..%.9 B ",
"p p k  .7.w.c.D > # ; : , ; 0 t.&.@.k f +.V./.j.W.s.N.A.C._ ^ T E s.i.F ; ; ; & # # D i.m m @.B j l ",
"j p +.O.c.B.t.> # # - ; ; ; 0 d.$.2.B d +.v.^.R.E.!.!.h.^ ~ T H T t.t.S # & + + @ # > A D i.2.%.s j ",
"3.f.=.7 0 0 # @ # @ # - ; + 7 a.@.$.,. .l 2.^./.R.^.Q.) K G w r E v.m.M @ O @ + @ + O - 7 M A p.i.<.",
"!.> . . . @ + O . o @ o . . X ; t u.N.<.@.l i.XX/.E.x./ H r b E s.!.i.0 o . . O $ + + O O @ + 7 W.M.",
"` $ X O : : O O ; : + . . . + $ % * w u.~.2.k p.XX].Q.' s.N.W.u.Q t % + + . . @ & : & + + ; $ + 7 N.",
"7 : v E x +   . q + .     . $ % % = = % N p.q.q.,.1.V.Q.!.c.~.t w w q ; $ ; > 7 t M t 0 0 e t b 7 A ",
"/.R.p.1.f.f.t.V p.t.D A A p.p.n.t.E Y C i.m.M. .$.4.R @.$.2.!.f.R E t.1.A f.1.f.W.v.1.1.A M =.B.A %.",
"2.>.<.$.+.@.$.V k s p +.2.2.q.#.+.l k @.,.0.v.@. .<.>.,.2. . .$.%.k j j ,.2.v.v.@.#...g X.2.v.0.#.#.",
"d @.q.w.M.k a s 6 9 B m | +.$.&.0.2.p  .d ..@.k f d $.2.v.b. .i s 5 9 j d +.@.2.#.q.4.g V k @.&.+.d ",
"p @.,.p  .i s 5 5 s s d  .p  .+.$.p.s B 8 8 s k +.d @.@.B +.d 5 5 5 s 5 d +.p V +.2.&.s 9 9 5 d +.c."
};
