/* XPM */
static char *_dd4baef060a42d196ede613a04d537cF1fv9fGdWCDPErmF[] = {
/* columns rows colors chars-per-pixel */
"50 50 222 2 ",
"   c #140B06",
".  c #1A0D06",
"X  c #170E09",
"o  c #1A0E09",
"O  c #100704",
"+  c #1D120C",
"@  c #1F1611",
"#  c #1F1913",
"$  c #0C0502",
"%  c #22150D",
"&  c #28150D",
"*  c #2E190E",
"=  c #32190F",
"-  c #231711",
";  c #251A13",
":  c #2A1C15",
">  c #2B1E19",
",  c #261F19",
"<  c #331D14",
"1  c #3A1D12",
"2  c #3B1F18",
"3  c #1D2710",
"4  c #25320F",
"5  c #2D2016",
"6  c #252D14",
"7  c #292E15",
"8  c #2D231A",
"9  c #212D18",
"0  c #292E1C",
"q  c #322216",
"w  c #3B2216",
"e  c #34241B",
"r  c #3B251C",
"t  c #33281D",
"y  c #3C291E",
"u  c #263314",
"i  c #2B3514",
"p  c #2D3B16",
"a  c #253319",
"s  c #2C341A",
"d  c #2D3B1B",
"f  c #253817",
"g  c #323616",
"h  c #333C15",
"j  c #31361B",
"k  c #333C1C",
"l  c #393E1E",
"z  c #2F2720",
"x  c #2F2921",
"c  c #362621",
"v  c #342B22",
"b  c #3C2C23",
"n  c #3D2E29",
"m  c #352F28",
"M  c #2E3A21",
"N  c #353224",
"B  c #3C3126",
"V  c #333C22",
"C  c #3A3E23",
"Z  c #37352B",
"A  c #3C342A",
"S  c #3C3B2D",
"D  c #3E3A32",
"F  c #44261B",
"G  c #432A1E",
"H  c #4A2B1D",
"J  c #4A2719",
"K  c #423E1F",
"L  c #442D23",
"P  c #4A2E22",
"I  c #412E29",
"U  c #532F25",
"Y  c #582F24",
"T  c #433226",
"R  c #4B3225",
"E  c #44342B",
"W  c #4B352B",
"Q  c #443B2E",
"!  c #4C392E",
"~  c #433E20",
"^  c #523425",
"/  c #5A3227",
"(  c #53362A",
")  c #5A362A",
"_  c #543B2D",
"`  c #5A3C2D",
"'  c #433C32",
"]  c #4C3C32",
"[  c #473A34",
"{  c #533E33",
"}  c #5B3E32",
"|  c #603B2B",
" . c #683F2D",
".. c #633E32",
"X. c #2F401C",
"o. c #34421C",
"O. c #3B441D",
"+. c #3C4B1E",
"@. c #35461C",
"#. c #2D4020",
"$. c #354322",
"%. c #3C4423",
"&. c #374823",
"*. c #3D4B23",
"=. c #3C432B",
"-. c #3E4A2A",
";. c #3C5124",
":. c #3F4432",
">. c #424B1E",
",. c #43441F",
"<. c #46521E",
"1. c #424524",
"2. c #424E26",
"3. c #434B24",
"4. c #42452B",
"5. c #444C2B",
"6. c #4A4C2A",
"7. c #4A4B25",
"8. c #504E27",
"9. c #435224",
"0. c #4A5325",
"q. c #4B5925",
"w. c #45522B",
"e. c #4A532C",
"r. c #4D5B2C",
"t. c #535C2B",
"y. c #444334",
"u. c #4B4236",
"i. c #454B33",
"p. c #4A4B34",
"a. c #464339",
"s. c #4C443A",
"d. c #464A39",
"f. c #4B4B3B",
"g. c #544134",
"h. c #5D4233",
"j. c #54453B",
"k. c #5B463A",
"l. c #524C3D",
"z. c #5B4B3D",
"x. c #445233",
"c. c #4C5333",
"v. c #4D523C",
"b. c #4E5A37",
"n. c #505533",
"m. c #525A33",
"M. c #52543D",
"N. c #535B3B",
"B. c #5B5A39",
"V. c #61402D",
"C. c #644334",
"Z. c #6B4536",
"A. c #61453A",
"S. c #6C4739",
"D. c #644A3C",
"F. c #6A4C3B",
"G. c #684A36",
"H. c #774A37",
"J. c #734C3C",
"K. c #794A37",
"L. c #6C513D",
"P. c #77563E",
"I. c #4B602E",
"U. c #5E692D",
"Y. c #5A6435",
"T. c #5D683C",
"R. c #616C39",
"E. c #4F4742",
"W. c #4E4A43",
"Q. c #554C41",
"!. c #5B4E42",
"~. c #535443",
"^. c #5A5446",
"/. c #555941",
"(. c #595B44",
"). c #5D5549",
"_. c #5D5D48",
"`. c #585B51",
"'. c #644D42",
"]. c #6C4F40",
"[. c #635443",
"{. c #6D5243",
"}. c #6A5449",
"|. c #645A4C",
" X c #695A4B",
".X c #64544A",
"XX c #735444",
"oX c #7B5444",
"OX c #755B4C",
"+X c #7B5C4C",
"@X c #7A5B47",
"#X c #6D5D51",
"$X c #765D51",
"%X c #7B5D51",
"&X c #5E6547",
"*X c #62624C",
"=X c #646744",
"-X c #7C6457",
";X c #79675B",
":X c #77675D",
">X c #6B714D",
",X c #84604E",
"<X c #836353",
"1X c #8C6454",
"2X c #8D6B55",
"3X c #836559",
"4X c #8B6B5C",
"5X c #856957",
"6X c #926E59",
"7X c #8D6E61",
"8X c #906D60",
"9X c #877165",
"0X c #947262",
"qX c #9B7865",
"wX c #97786B",
"eX c #9F7F72",
"rX c #A27E6D",
"tX c #9F816D",
"yX c #9F8272",
"uX c #A1806B",
"iX c #A88875",
"pX c #B49582",
/* pixels */
"o.5.o.h p X.i f o.O.=.s h k V j ,.*.@.p 4 f l p p o.*.h i f p 6 u g *.k g i o.o.p ;.o.@.u u u %.i l ",
"*.+.@.*.o.o.p i ;.3.O.l h k k 3.0.3.w.4 f h k o.+.;.@.@.+.o.o.u i +.7.h i h o.p <.w.9.9.9 d d V k *.",
"2.w.0.2.@.@.p u *.@.d l 1.>.1.3.3.5.+.d d $.k d @.9.b.~.z.*Xv.=.s 3.5.h k o.3.*.+.+.*.o.d $.o.k u o.",
"h O.%.M p h d d o.d f %.l h o.O.h V o.@.k k %.-.p.~.Q.s.! Q T A W.i.s s $.V h O.o.p X.@.$.$.k k h i ",
"7.l M u o.*.5.o.$.l g 7 C %.O.o.d k %.-.d.y.D ' u.D ' ' y.Q A m B D y.y.6 %.%.2.d V h O.X.h 1.5.k O.",
"1.s j u o.0.3.V 6.O.3.*.5.e.*.k s i.f.A m D s.l.f.s.a.s.y.y.s.[ s.s.D m f.c.4.5.j d o.O.l -.%.e.5.5.",
"i l >.O.>.q.0.e.3.d &.3.3.>.O.p.f.B B 4.j.!.l.l.[ ' D u.k.k.g.j.s.u.s.y.A s.c.O.*.w.9.>.8.e.O.1.p.3.",
"2.n.@.>.t.t.q.<.>.k $.r.B.=Xl.b T _ h.l.Q.).z.] E ] z.D.XX@XP.L.z.j.s.[ B B v A v.3.t.+.7.e.t.0.c.5.",
"O.1.7.9.3.>.>.>.@.5.*.;.B.k.D.XXG.G.L.h.g.j.u.Q u..X#XOX8XqX0X2X@X!.j.j.s.A m 5 t M.b.+.>.O.U.T.x.&.",
"6.6.3.2.6.n.O.O.O.9.@.x.!.OX4X4X,XP.,Xh.y E [ [ j.#X:X4X8XwXuXuX0XOX.Xg.{ E.E n ^ ^ [.r.0.*.e.e.o.o.",
"w.e.*.@.5.k k V V $.d _.XX<X8X0X8X4XOXW q B u.j..X}.$X4X0XeXwXuXuX5X:X|.s.E.E.[ k.J.F. X>Xw.V s h V ",
"d &.w.2.w.p s a a a i. X+X1X1X2X1X4XD.b e v ! j.|. X%X0XiXiXtXiXwX5X9X:Xj.s.W.D ! +X-XoX>X7.N C $.j ",
"a =.k h &.h O.s 6 s |.C.Z.J.J.S.C.'.{ y c b g.g.k.}.$X4XuXwXiXpXiX0X;X#Xk.Q.[ D v +X0X3X|.*.j t.3.5.",
"d %.l &.*.*.&.u s /.F./ U ) ..C.S.^ G y n [ g.] h.k.}.+X0X7XwXwXwX7X%X#XQ.E.s.Z m -X0X2X}.v.%.B.&.k ",
"s u o.+.o.3.o.f -.[.C.Y Y Z.J.J.( F w e I A ] W L T D.XX{.oX%X-X7X$X}.'.j.] E m b A...oXXX|.=.=.s k ",
"s s d f w.e.%.s i.} ..) / ..C.P 1 w r y b c ] W W E.k.{.h.h.} ].3XOXD.A.k.k.E z < S...} ` L.w.k 9 V ",
"k V j a *.7.o.d ~.h.H.| F F < * w U R H r 5 ! ` ] `.[ ` k.g._ ^ D.) L ( C.{ E , - ) J.} F W c.h s k ",
"O.O.$.f o.h i =.l.) Z.` F q < w H V.h.R r q W {.h.W F R F.G.` J F 2 = R } ] Q , % F S.S.U R v.=.&.3.",
"6.9.@.o.k o.O.b.Q G ^ ) | ) / H H h.h.^ R e E $X'.R H ( h.G.` J P / P R ` { B > w < r P F _ l.&.w.m.",
"t.Y.9.O.O.O.3.~.E y q R Z.H.Z.( T H _ g.` y E '.'.} ` { h.oXP.G 1 J } } g.T e q b < : < U G.M.h *.6.",
"6.e.7.O.*.O.n.j.E B T T ....C.R L H R W R T W g.k.} h.R C.2X,X^ P ) ..A.{ b q > L P H J P z.N.*.*.1.",
"6.,.1.%.6.e.*XQ b T { W W P L L y H ^ T R L L W P R ^ R h.@XL._ ( C.XXA.L e , 2 ) H.K. .z.c.e.I.@.&.",
"3.>.>.O.*.e.^.T b W { W E I e : ; q r T R R t W P L H ( _ h.R R P } C.} q : , y R H.K.G.(.5.c.c.&.%.",
"o.o.3.$.3.i.Q.T R ! E E E W n , ; 5 * y R R t W ) ( y ! g.! R G P ( { _ > ; c E ( ` ( W ~.=.%.1.O.h ",
"k O.*.k 3.=.s.E ! ` T b b b u.y.t & % : L L r I ! ! I ] { { { { } Q.} I > 8 b L R T G r s.M 3 7 f k ",
"h 7.%.j s C y.E _ g.E L b 8 ' f.4.: % % < b r > I { ] { k.} } k.k.] c > - : q b L T W T f.V 6 k i C ",
"3.5.3.1.j 4.y.B E ! E W ! L A ~.f.e % + % 2 b b c I [ [ { { ] ! b - @ - ; q y L T g._ T d.$.k C k %.",
"6.x.e.6.C %.d.A E g.! E { [ E ~.Q.v + % - ; 2 L I b 2 > > b > : - - : ; e E g.! W { g.Q W.&.%.C j l ",
"C %.5.$.j l f.D E ] ] E [ { A f.f.=.; + & & : > T I > ; + o - ; : 8 v z b [ k.[ T ! L ' v.$.*.O.k j ",
"C s s a $.5.v.y.m E ! A [ g.E y.v.W.v - ; > > c b c 2 & - ; ; > > , [ ' E g.k.[ ! g.E f.4.%.1.w.%.%.",
"=.s s s k e.p.:.m B E A E [ E A f.~.y.; : c b L b b c c c c c > ; z W.E E j.u.E ] ! n f.=.O.k e.5.7.",
"O.1.5.&.0.t.e.p.B m E L m W E A f.N.M.v ; > c b I I I c n n c ; ; S f.A E g.] A E E A /.m.n.C %.1.3.",
"3.n.%.*.r.0.e.l.Z t B m y B T A ~.(.c.u.8 ; > > b I n b c 2 ; - - s.W.A E g.T B A b ' i.3.B.t.7.*.-.",
"4.K 7.3.w.w.3.N.y.t t t e q t A v.c.*.i.Z ; ; : ; ; : > > % % % & [ M.A E E y B B t f.e.3.7.Y.Y.&.$.",
"w.e.3.+.3.q.o.b.:.8 5 5 q q q S N.q.q.m.:.; - % o o   o % + o % ; y.v.v y y t B t 0 M.r.e.*.9.w.$.&.",
"9.<.;.+.w.o.o.5.S ; 5 5 q q 8 :.=XR.I.R.N.m e > - > ' c o % & & : i.f.v t 5 q q t x &Xr.T.e.k k d X.",
"s @.9.+.9.j d x.v ; , 5 8 : 5 =.N.t.>.t.(.[ A b > s.N.f.q < = < w ' :.m 8 8 q 8 8 x &X;.q.+.f O.@.o.",
"a O.o.k 3.o.o.W.8 ; : : ; & 5 =.5.3.l O./.^.[ b ' x./.{ L P L I I f.:.N : > 5 5 5 8 N.*.X.@.k w.<.9.",
"k O.o.%.O.+.5.d.8 # ; , : : 8 d.5.1.l f c.|.j.Q a.x.~._ ( ) _ W R u.d.B ; % ; 5 , # W.-.s V O.t.O.k ",
"i 4 k -.-.e.i.Z # # ; : : - 0 f.3.g O.d %.*X!.u.W.d.f.} | ) ) P L ] =.Z ; % - - ; + a.-.M s *.1.s V ",
"h =.i.S S D Z # @ @ + ; ; - 0 f.%.o.h d d N._.l.^.M.M.D.C.` ( P T j.:.Z # - ; ; + + S :.d d $.k j k ",
"i.y.- . X . @ + X X + + + + ; y.i.w.%.M k 5.^.Q.j.^.~.g.H F F w r f.=.S + @ @ @ + @ # v.=.=.3.$.7 p ",
"y.v . . + : % . + ; + X     o % 5 B u.5.=.1.c.~.~.Q.j.` J 1 = r y.n.M.x + X + o + + + # N y.4.p.=.3.",
"C v t m A 8 . $ + , + O $   o % & * 1 y p.5.C e.T._.!.] T u.l.f.p.u.t % +     X + + + X .   X 8 &Xr.",
"B._.M.c.y.y.y.=.i.y.Z S A Z y.S E T y y E 4.V 3.c.Y.T.M./.M./.A < q * % . X X + % > ; + + ; @   5 ~.",
"%.p.6.k %.$.3.1.1.o.&.5.O.6.6.5.4.C l 1.5.c.e.e.1.1.4.3.%.&.c.M.E E A 4.S B B 4.' ' N v 8 8 v v ; B ",
"i.~ %.-.5.w.5.l k -.O.%.e.6.5.e.5.4.C V O.c.n.o.O.6.K 1.*.*.c.w.l l 5.%.5.M.4.6.c.c.1.%.C N 4./.S :.",
"5.7.1.&.%.%.*.C k j s &.5.w.c.&.%.l k %.3.w.n.&.$.3.7.3.5.o.o.*.1.k s k *.5.c.c.%.&.O.g *.3.c.e.&.&.",
"d O.e.r.b.l 6 a 7 7 V #.o.$.*.-.w.5.p k d %.*.h f d &.6.c.b.V i 0 7 7 j d $.*.5.*.e.3.h C j %.-.o.o.",
"p =.3.p o.f s 7 7 s s s o.i o.$.*.p.d V 9 9 0 M @.d 1.%.d $.d u 6 6 s 0 d V s C $.2.4.s 0 0 0 d $.-."
};
