/* XPM */
static char *result[] = {
/* columns rows colors chars-per-pixel */
"25 25 210 2 ",
"   c #0A0301",
".  c #000400",
"X  c #130D03",
"o  c #1C0C00",
"O  c #181712",
"+  c #181809",
"@  c #351307",
"#  c #2A1B10",
"$  c #3E1E12",
"%  c #302009",
"&  c #232D14",
"*  c #2C2B17",
"=  c #3D2415",
"-  c #362D19",
";  c #2B3415",
":  c #2C3A17",
">  c #2D3319",
",  c #2D3A1B",
"<  c #273618",
"1  c #313B15",
"2  c #333C1B",
"3  c #373C19",
"4  c #2E3722",
"5  c #343E21",
"6  c #393F21",
"7  c #363827",
"8  c #441502",
"9  c #4D1F13",
"0  c #561B14",
"q  c #402805",
"w  c #452718",
"e  c #522516",
"r  c #582D1A",
"t  c #45391F",
"y  c #64220F",
"u  c #702E14",
"i  c #64361F",
"p  c #753618",
"a  c #512E22",
"s  c #4F3A27",
"d  c #563521",
"f  c #533A2B",
"g  c #5A3B2A",
"h  c #5E3C30",
"j  c #663824",
"k  c #7F3B24",
"l  c #2C4519",
"z  c #304016",
"x  c #34421C",
"c  c #3A431D",
"v  c #3C491D",
"b  c #34481F",
"n  c #344321",
"m  c #3C4423",
"M  c #3C4A23",
"N  c #3E4B29",
"B  c #334822",
"V  c #3F5223",
"C  c #41451E",
"Z  c #434C19",
"A  c #484E1E",
"S  c #514018",
"D  c #5E401B",
"F  c #43541A",
"G  c #4C541D",
"H  c #48581B",
"J  c #535A1E",
"K  c #6F4A14",
"L  c #7F411B",
"P  c #5B601F",
"I  c #414623",
"U  c #484021",
"Y  c #434B23",
"T  c #494E24",
"R  c #454C2A",
"E  c #4C4B2C",
"W  c #49442B",
"Q  c #594B22",
"!  c #445223",
"~  c #4B5424",
"^  c #4D5B22",
"/  c #4C542B",
"(  c #4F5B2B",
")  c #44572A",
"_  c #525C24",
"`  c #5A5E24",
"'  c #545B2B",
"]  c #5A5D2B",
"[  c #515728",
"{  c #4E4E39",
"}  c #4E4C34",
"|  c #594433",
" . c #4D5537",
".. c #5C5D3D",
"X. c #555830",
"o. c #6B4329",
"O. c #69492A",
"+. c #7E4328",
"@. c #744A2C",
"#. c #774327",
"$. c #725521",
"%. c #755E2B",
"&. c #6E4935",
"*. c #784834",
"=. c #665E35",
"-. c #67563A",
";. c #785A37",
":. c #645B28",
">. c #546224",
",. c #5A6225",
"<. c #5D6A24",
"1. c #55622A",
"2. c #5A642C",
"3. c #5E692C",
"4. c #5B6431",
"5. c #596437",
"6. c #626425",
"7. c #63672E",
"8. c #6A642A",
"9. c #646B2C",
"0. c #6D6627",
"q. c #716126",
"w. c #6B712F",
"e. c #66702B",
"r. c #636533",
"t. c #626C33",
"y. c #696B32",
"u. c #6C653E",
"i. c #666739",
"p. c #766739",
"a. c #6D7532",
"s. c #6C733A",
"d. c #72763B",
"f. c #7B743D",
"g. c #757C39",
"h. c #5A5641",
"j. c #665642",
"k. c #5D6450",
"l. c #6C6643",
"z. c #6A6D44",
"x. c #6C6D4B",
"c. c #656948",
"v. c #796848",
"b. c #7D6744",
"n. c #7B7343",
"m. c #767944",
"M. c #843E1D",
"N. c #805C1E",
"B. c #BE551F",
"V. c #894425",
"C. c #874526",
"Z. c #855C22",
"A. c #98582E",
"S. c #884E36",
"D. c #8D5C34",
"F. c #845835",
"G. c #905B3B",
"H. c #A9582A",
"J. c #8B6625",
"K. c #8D6927",
"L. c #98672B",
"P. c #8B623A",
"I. c #956435",
"U. c #976836",
"Y. c #8C703D",
"T. c #B4662B",
"R. c #A77129",
"E. c #A06531",
"W. c #A87A3A",
"Q. c #B87436",
"!. c #C96E33",
"~. c #C77132",
"^. c #C57E39",
"/. c #CA793B",
"(. c #D57A35",
"). c #846A45",
"_. c #926741",
"`. c #877647",
"'. c #9F7849",
"]. c #987C40",
"[. c #A06D45",
"{. c #A47247",
"}. c #C67E45",
"|. c #BA8439",
" X c #C1853D",
".X c #99844F",
"XX c #9A8958",
"oX c #A48240",
"OX c #B4864A",
"+X c #BE9451",
"@X c #8A8965",
"#X c #92926C",
"$X c #C68446",
"%X c #D78A49",
"&X c #C4954D",
"*X c #CB944A",
"=X c #CA984A",
"-X c #DB9543",
";X c #C49A51",
":X c #D7925A",
">X c #DBA24B",
",X c #D5A453",
"<X c #E3A74E",
"1X c #E09862",
"2X c #DFA264",
"3X c #E9B46D",
"4X c #E9BC65",
"5X c #FEBB7A",
"6X c #F6CE6F",
"7X c #FBD785",
/* pixels */
"x : I m N I c I I ~ i.s.1.H _ J G ~ Y m , & * > 5 ",
"m M N m Y I c 3 ~ 7.f.y.6.:.=.r.r.2._ Y : : 5 > 2 ",
"m I v Y I C A [ ` 0.l.-.g o.#.@.b.y.9.~ 3 1 ; , n ",
"v m I I v Y _ 6.%.O.h f j +.u y u ;.f.7.I Y 2 < 5 ",
"2 2 2 c v ,.7.-.*.j w # = i i @ 8 p ;.i.! ) T 2 2 ",
"6 6 6 v H <.Y.S.j = $ $ a j d 7 - e j #.` ^ 2.( 2 ",
"I v c Z <.f.G.C.w = e e #.C.D 5.{ * r L q.7.,.~ Y ",
"! _ _ H 9.;.#.o.W a e 0 k L $.p.{ } *.V.q.7.Y M / ",
"A ] ] _ =.&.d W h.| D.H.C.M.F.F.@.D.H.S.=.` ! ) ! ",
"/ ' ] t.l.j.f | )..X,X-X~.H.F.P.!.(.B.).y.J ' ! M ",
"Y ~ 2.4.i.x.j.{.3X7X6X-X/.Q.D.D./.~.T.f.7.H c : B ",
"z x / 2.x.c.v.:X5X7X3X^. X;XQ.E.A.U.I.e.^ c ; ; : ",
"x 2 Y J s.l._.:X1X2X$X~.*XOX=X*XW.W.`.J Z 1 > > 2 ",
": z c F 3.g.'.$X%X XT. X XL.;X4X=X|.f.J Z 3 c 2 2 ",
"2 x x ( 3.a..X$X(.(. X XK.Z.&X6X<X|.p.G C Y R 2 : ",
"n m m / ' t.Y._.}.-X+X|.K.$.W.-X XY.w.G c W I 3 n ",
"2 2 m M v _ ] &.{.;XXXXX.XK.K.R.L.p.9.~ x m > > > ",
"m m m B z ~ _ ] m..X@X#X`.%.$.K D i.e.' c x I > & ",
"R R I 2 2 Y _ 6.s.x.@X@Xl.Q d q s s.e.^ c c R m M ",
"/ / C c / ' 2.a.m.c.k.k...C % o } g.a.1._ R 5 m / ",
"] r./ c / 5./ ' a.f. .7 7 * o   5.s.3.' ] / 2 n R ",
"T E I M N X.Y T ` g.m.4 . X   O z.y.4.( W I ! M M ",
"M R m B V ) ^ 1._ J w.4.m O + Y 2.1.( M N v M x l ",
"l v v b 5.5.1.t.2.T H ^ >.>.,.1.>._ Y m n B n n , ",
"l ; c m ) ' C _ ~ n T H F F ^ 2.^ ! x : < & ; x B "
};
