/* XPM */
static char *result[] = {
/* columns rows colors chars-per-pixel */
"25 25 209 2 ",
"   c #0C0C09",
".  c #070500",
"X  c #110605",
"o  c #16130A",
"O  c #1D1204",
"+  c #291808",
"@  c #3C1C11",
"#  c #242D14",
"$  c #2B2D14",
"%  c #28271A",
"&  c #3A2213",
"*  c #392817",
"=  c #2C3515",
"-  c #2C3C17",
";  c #2C3319",
":  c #2D3B19",
">  c #263215",
",  c #313A15",
"<  c #323719",
"1  c #333C1B",
"2  c #393F1C",
"3  c #333E21",
"4  c #393F21",
"5  c #373624",
"6  c #461C0F",
"7  c #551B05",
"8  c #442C0F",
"9  c #46281A",
"0  c #4B2B1C",
"q  c #522215",
"w  c #552B1A",
"e  c #543718",
"r  c #622518",
"t  c #722D15",
"y  c #64341D",
"u  c #7A391C",
"i  c #463624",
"p  c #573827",
"a  c #633A28",
"s  c #693824",
"d  c #793E29",
"f  c #2C4519",
"g  c #3B4215",
"h  c #34421C",
"j  c #3B431D",
"k  c #3C4A1D",
"l  c #36441B",
"z  c #354221",
"x  c #3C4423",
"c  c #3C4A23",
"v  c #3D4B29",
"b  c #334822",
"n  c #434B1B",
"m  c #464A1E",
"M  c #44531B",
"N  c #4C551C",
"B  c #4A591B",
"V  c #555C1E",
"C  c #50561F",
"Z  c #56461C",
"A  c #7F401F",
"S  c #744617",
"D  c #7D581F",
"F  c #59621C",
"G  c #626A1F",
"H  c #424624",
"J  c #434C23",
"K  c #494D25",
"L  c #454C2A",
"P  c #4C4B2C",
"I  c #464325",
"U  c #584A27",
"Y  c #435224",
"T  c #4B5324",
"R  c #4D5B25",
"E  c #4B532B",
"W  c #4B5A2A",
"Q  c #515626",
"!  c #535C24",
"~  c #51552C",
"^  c #545C2B",
"/  c #5B5C2A",
"(  c #594B35",
")  c #4C5630",
"_  c #535830",
"`  c #5B563A",
"'  c #5A5737",
"]  c #4A4937",
"[  c #6D412E",
"{  c #72432C",
"}  c #784A27",
"|  c #725626",
" . c #6D4330",
".. c #695838",
"X. c #745A3B",
"o. c #785637",
"O. c #556225",
"+. c #5C6423",
"@. c #5E6A25",
"#. c #566228",
"$. c #5B652C",
"%. c #5D6829",
"&. c #5F623C",
"*. c #586433",
"=. c #646A25",
"-. c #64652B",
";. c #646B2B",
":. c #6A6E2C",
">. c #686626",
",. c #716A28",
"<. c #637227",
"1. c #657129",
"2. c #6B722E",
"3. c #6E752A",
"4. c #717A26",
"5. c #696333",
"6. c #636C32",
"7. c #646639",
"8. c #6A6D3C",
"9. c #646734",
"0. c #756738",
"q. c #6D7436",
"w. c #637233",
"e. c #777A36",
"r. c #73743C",
"t. c #78753A",
"y. c #4F5546",
"u. c #515843",
"i. c #695A45",
"p. c #5F6346",
"a. c #6E6D45",
"s. c #6B6944",
"d. c #796945",
"f. c #6F7246",
"g. c #757346",
"h. c #7A7A41",
"j. c #75795D",
"k. c #813F1F",
"l. c #813E20",
"z. c #884E1D",
"x. c #855E1E",
"c. c #86462A",
"v. c #984929",
"b. c #89562F",
"n. c #98532A",
"m. c #95562C",
"M. c #824F34",
"N. c #954E32",
"B. c #885438",
"V. c #955C31",
"C. c #A35D2D",
"Z. c #856223",
"A. c #886124",
"S. c #99692D",
"D. c #85613F",
"F. c #956736",
"G. c #977838",
"H. c #B6662B",
"J. c #A1722C",
"K. c #A86837",
"L. c #B36E35",
"P. c #AF7F3C",
"I. c #BF7B3A",
"U. c #B87939",
"Y. c #CE6126",
"T. c #C47D3B",
"R. c #CC7B3B",
"E. c #D27538",
"W. c #E67C3A",
"Q. c #897547",
"!. c #897F56",
"~. c #8E6843",
"^. c #A17245",
"/. c #BC7843",
"(. c #C37D43",
"). c #7C8243",
"_. c #BC833C",
"`. c #B18238",
"'. c #C78137",
"]. c #D0883D",
"[. c #CF903D",
"{. c #98844F",
"}. c #888058",
"|. c #9C8853",
" X c #A3834A",
".X c #BA8C47",
"XX c #A98A52",
"oX c #B58352",
"OX c #979067",
"+X c #909370",
"@X c #848766",
"#X c #D48844",
"$X c #C79549",
"%X c #D69848",
"&X c #D48F53",
"*X c #D98E53",
"=X c #C79650",
"-X c #C7834B",
";X c #D2AB5B",
":X c #DFB15F",
">X c #EEAA4F",
",X c #E8AF56",
"<X c #CAB06C",
"1X c #D3B363",
"2X c #E5A46A",
"3X c #F4B977",
"4X c #E6B763",
"5X c #FAD77F",
"6X c #FAD484",
/* pixels */
"h , c x v L 1 x m K &.w.$.B ! V Q ! J k 3 # $ ; 3 ",
"c x v x J I j 2 K -.r.:.=.=.:.>.9.=.O.T - : 3 = 2 ",
"x H x J H 2 m T ! 4.,...i.p a [ o.8.3.! m 2 = : 3 ",
"k j H H n Y Q +.5.o.{ a p p } u t d Q.w.m H h = 4 ",
"< < 1 j k ! =.0.B.{ 0 9 + * a y 6 7 u 0.! W T 1 3 ",
"z 4 1 k B @.t.B.N.0 @ q @ w s w % & t M.5.+.;.^ , ",
"H k k n +.r.o.c.d * 0 q q N.l.U ' i 9 a | :.-.! K ",
"T ! ! M ;... .e ( u.p r r l.S >.f.] * s c.:.Y Y W ",
"m ^ ^ ! 7.s.( i ( i.} -Xn.k.k.b...P X.N.z.=.R W L ",
"E ^ / 9.s.f.i.i.oX<X1X>XR.H.m.~.n.C.K.v.X./ +.Y c ",
"c T ^ #.7.s.s./.3X6X6X%XR.T.m.0.E.W.Y.m.q.! n l l ",
"- h E ! r.s.~.&X2X3X2XT.I.=XL.V.K.K.H.t.+.N , - f ",
"h : c N 1.h.^.-X*X&XU.U.$X.X$X'.F.F.F.:.N 2 , = : ",
"- , h n @.4.XX(.].R.H.%X_.S.=X1X_.U.h.F N g j 1 < ",
"1 2 1 W 9.3.Q./.R.#X#X`.x.S.;X4X%XP.t.V m m L 2 : ",
"z z x E ^ ;...F.&X=XXXJ.,.A.$X,X[.Q.:.N g P H 1 z ",
"1 1 z c k V / 0.^.|.OX|.G.Z.J.'.J.q.;.T 2 z < ; < ",
"x 4 c z h Q =.q.g.@X+X}.0.| D S / q.;.Q h 2 4 < # ",
"L J x 1 h T / 3.f.j.).a.U Z e 8 8.;.;.W k z L 4 c ",
"~ ^ H h E ^ %.e.j.y.y.u.I * + i h.2.;.! Q J 4 x E ",
"/ 9.W l ) &.W -.e.s.% 5 $ O X ' q.6.$.~ ' Q 1 z E ",
"K P H c L ~ T ! =.).% . o X o 8.w.*.^ T I x Y c v ",
"c L x b c R R $.+.=.6.4     E ;.! ! W c v k c h f ",
"f k c b *.7.#.w.%.Q ! R F <.1.O.R R x z b z z z : ",
"f = j k E _ m R T k T R M M V #.R M : = > # > z b "
};
