/* XPM */
static char *_dd4c5c648bf462afb83e2c7e1d168caYxtydomAV4PyVpMo[] = {
/* columns rows colors chars-per-pixel */
"50 50 242 2 ",
"   c #000302",
".  c #030A06",
"X  c #050D0A",
"o  c #0B0E0B",
"O  c #0A0506",
"+  c #130E0C",
"@  c #1B0E0B",
"#  c #1C0704",
"$  c #06110C",
"%  c #0D110D",
"&  c #0E1C0F",
"*  c #11130E",
"=  c #1A130E",
"-  c #131A0E",
";  c #181A0F",
":  c #0D1411",
">  c #0F1C13",
",  c #141511",
"<  c #151A12",
"1  c #1A1B14",
"2  c #1B1E19",
"3  c #191714",
"4  c #230905",
"5  c #27120D",
"6  c #3B140E",
"7  c #221D14",
"8  c #291B15",
"9  c #371A14",
"0  c #19240E",
"q  c #1C2314",
"w  c #1D231B",
"e  c #1D2A17",
"r  c #25320F",
"t  c #222515",
"y  c #252D14",
"u  c #292E15",
"i  c #24241B",
"p  c #2B231B",
"a  c #252D1A",
"s  c #2A2B1B",
"d  c #2D2113",
"f  c #38271C",
"g  c #263214",
"h  c #2B3515",
"j  c #2D3A16",
"k  c #25321A",
"l  c #2C341A",
"z  c #2D3B1B",
"x  c #253817",
"c  c #333C16",
"v  c #31361B",
"b  c #333C1C",
"n  c #3A3E1D",
"m  c #333716",
"M  c #1C1B22",
"N  c #1C2523",
"B  c #262B23",
"V  c #2C2C22",
"C  c #2D2A26",
"Z  c #332B22",
"A  c #3C2B23",
"S  c #3A2F28",
"D  c #2D3225",
"F  c #2E3A22",
"G  c #2D352B",
"H  c #323225",
"J  c #3B3325",
"K  c #333C21",
"L  c #393E23",
"P  c #34342B",
"I  c #3B342B",
"U  c #3C382C",
"Y  c #343A2E",
"T  c #2D3634",
"R  c #3C3C35",
"E  c #41130F",
"W  c #441813",
"Q  c #551D18",
"!  c #48231C",
"~  c #53241C",
"^  c #413E1F",
"/  c #412D25",
"(  c #4D2E25",
")  c #442321",
"_  c #532B21",
"`  c #5B2B27",
"'  c #443127",
"]  c #44342A",
"[  c #443A2E",
"{  c #4C3A2C",
"}  c #493427",
"|  c #57382A",
" . c #443C32",
".. c #4C3D32",
"X. c #433833",
"o. c #573A31",
"O. c #64382B",
"+. c #673B34",
"@. c #743F39",
"#. c #2D431A",
"$. c #2D4317",
"%. c #34421D",
"&. c #3B441D",
"*. c #364A1E",
"=. c #3B4A1E",
"-. c #344517",
";. c #2E4020",
":. c #354322",
">. c #3C4423",
",. c #364A22",
"<. c #3C4B23",
"1. c #3C4328",
"2. c #3D4B29",
"3. c #3E5222",
"4. c #3E4336",
"5. c #424A1E",
"6. c #45461F",
"7. c #46521E",
"8. c #424524",
"9. c #434B24",
"0. c #494D25",
"q. c #414529",
"w. c #444C2A",
"e. c #4A4C2B",
"r. c #484420",
"t. c #534B29",
"y. c #445224",
"u. c #4B5424",
"i. c #4B5924",
"p. c #45522B",
"a. c #4B532B",
"s. c #4D5A2C",
"d. c #525C2C",
"f. c #56562B",
"g. c #444134",
"h. c #4C4235",
"j. c #4D463B",
"k. c #4E4839",
"l. c #444B36",
"z. c #534336",
"x. c #5C4233",
"c. c #54453A",
"v. c #534B3D",
"b. c #5C4A3B",
"n. c #5B4938",
"m. c #4D5432",
"M. c #4E5833",
"N. c #445231",
"B. c #545A31",
"V. c #545D39",
"C. c #555734",
"Z. c #634B3D",
"A. c #674736",
"S. c #774537",
"D. c #66563B",
"F. c #765738",
"G. c #6A512B",
"H. c #5B652E",
"J. c #596232",
"K. c #5A6537",
"L. c #4B602E",
"P. c #606836",
"I. c #4B4A43",
"U. c #534B43",
"Y. c #5D4E42",
"T. c #5B5342",
"R. c #56554B",
"E. c #575A54",
"W. c #654C42",
"Q. c #6B5345",
"!. c #685649",
"~. c #74564B",
"^. c #78574A",
"/. c #6C5D53",
"(. c #655D53",
"). c #745B55",
"_. c #68655A",
"`. c #7C645A",
"'. c #786858",
"]. c #7D6648",
"[. c #6D6B63",
"{. c #7D6D63",
"}. c #796966",
"|. c #777367",
" X c #7D7872",
".X c #814C3E",
"XX c #8D6735",
"oX c #87554A",
"OX c #885F58",
"+X c #94594B",
"@X c #A25C40",
"#X c #866347",
"$X c #886759",
"%X c #986658",
"&X c #8C7254",
"*X c #967857",
"=X c #897146",
"-X c #A36F43",
";X c #836C64",
":X c #8A6C65",
">X c #897666",
",X c #947B6D",
"<X c #9E7D6C",
"1X c #957568",
"2X c #967B73",
"3X c #887874",
"4X c #A17A73",
"5X c #9E8358",
"6X c #A7864D",
"7X c #AA8659",
"8X c #B38859",
"9X c #AD905B",
"0X c #9C8363",
"qX c #8C8379",
"wX c #96867B",
"eX c #8C8566",
"rX c #A98667",
"tX c #A58478",
"yX c #AC9876",
"uX c #B3926B",
"iX c #C89475",
"pX c #988D86",
"aX c #91918C",
"sX c #A58983",
"dX c #B58E84",
"fX c #A8938B",
"gX c #B3958A",
"hX c #BA958A",
"jX c #B89586",
"kX c #B79A93",
"lX c #A39B94",
"zX c #B9A397",
"xX c #BBB19E",
"cX c #A8A29D",
"vX c #BBBAB9",
"bX c #B4A9A7",
"nX c #C59C89",
"mX c #C59E93",
"MX c #C9A397",
"NX c #C8A180",
"BX c #C1B2AF",
"VX c #CBCAC4",
/* pixels */
"%.w.%.j j -.g x %.,.8.v m v L v &.&.&.j r x n j j &.2.$.h j x y g m >.b m h &.F j 3.,.&.k y g >.h n ",
"<.=.&.<.%.%.j x 5.<.>.b n n b 9.a.u.p.x g b %.-.*.<.-.&.*.-.b x h 5.9.n h c -.j 5.i.2.3.g z j :.v >.",
"9.p.a.9.&.-.j g <.,.j b &.8.<.8.9.q.*.j #.:.b j -.p.p.y.2.%.%.l l 8.9.b %.%.9.<.=.<.<.*.z :.:.%.h %.",
"c &.>.#.j c v z %.#.l >.-.c n -.b :.&.-.j n j m v c %.*.%.-.%.v g b v l :.b c &.%.x -.-.;.:.b m j j ",
"r.n K k %.<.p.%.:.n m u L >.,.&.z b &.#.z >.9.:.1.^ b z z j <.9.%.z %.m u L K w.j K n &.j b >.w.n >.",
"q.l z x %.p.9.L w.9.9.>.w.a.>.j l :.&.n 1.8.e.y.8.L l K F %.a.>.b &.<.=.9.w.w.w.K l -.&.>.>.>.m.q.9.",
"h n 6.&.5.i.u.a.9.j >.e.9.5.>.>.u.u.y.f.0.&.m n y q q q t a b b n v x %.9.9.5.-.>.p.y.5.0.a.&.>.m.8.",
"9.M.-.=.H.i.u.7.5.z :.d.C.K.B.&.p.B.5.0.d.9.t % 3 w = i w : , $ . o * 1 :.f.H.9.&.9.L.5.0.f.d.u.m.w.",
"&.[ 0.y.9.5.5.5.-.y.,.2.7.6.8.>.<.B.<.j , X G `.$X'.W.{.[.c.E.V...V % Y X.i y n 1.:.s.=.6.&.P.K.N.<.",
"e.e.9.3.e.M.&.&.&.a.#.#.<.8.^ >.p.w.< X , B =XMXNXuXqX$X%X1X2X8X$XT.V R.$X!.R Z & N.L.y.u.<.i.a.:.#.",
"p.a.=.*.q.b b :.K :.b j &.1.q.,.2.. G Y   3XiXbXMXvXgXtX|.*X,X;XR.R { E B Q.rX{.4.& >.u.P.p.P h v K ",
"z ,.p.9.p.j l a k l K ,.z v 1.l $ X.'.] G.MXpXwX5XaX>XgXvXMXgXgX;X`.U.h.  < o.rXuX}.I u s.a.v [ %.F ",
"k 1.%.v *.n %.z y y v b %.v a   T {.~ $XxX[.$X2X*XF.b.@X&X_.dXmXdX8X$X{.T   2 #XpXuX*XX.j &.v d.9.p.",
"z >.b <.=.<.<.g x l v b :.< & t.rXR.3 6X<X;X$Xo.h.D I | h.1 R gXvXpXjXdX$XT 4 o.3X_.sX!.a >.>.V.,.b ",
"l y n *.&.9.%.g b r v b * 3 F.yX).@ U.nX/...P U 6X6X}.R Z @.n , ;XkXmXhX,X`.s V S.XX0XY.H b >.>.u K ",
"l z z x 2.s.>.l x v s - R ,X1X;XB o.pX9X[ B XX9XcXmXtX1X/.A {.` } gXkXcXgX,XU.4 ~ qXMXj.D K >.K a K ",
"v K F k <.0.b z b >.l * D.8XOX`.N $XqXP v.9XMXkXaXMXBXkXmX/.X.|.3 I :XhXMXlX&XG 8 U.;Xc.u n -.b l b ",
"&.&.:.l b c h j <.a.>.< _.1XQ.3 5 -XK O.1XbXgXhXBXVXbX7X7X_.6 }.'.B X.*X5XjXuXI.4 { %Xs b b -.>.:.p.",
"a.y.-.-.n -.&.=.s.u.>.X 7 1XU O G.<XM 1 :X4X4.~.wX$XH fX>X^.o.G kXB } F.k.:XzX[.& w S.<.&.5.b :.p.B.",
"B.H.y.&.>.&.9.&.9.$.&.q ; D.{ # P.uXC X Q.h.C X 8 U.$XfX[.!.+X1 |.b.] U n.F.4XnXU.  a u.y.y.>.b <.e.",
"e.a.9.>.8.&.9.&.=.j *.3.> i 9 C tX}.< < ! R %X3 oX7XU.4 oX'.B % W.Y U {  .U.].eXpX] 0 -.5.9.9.3.<.r.",
"q.6.6.8.9.a.a.8.&.=.,.,.e @ x.&X%XA.3 o 8 X 9 B xX>X  + Z ` @ . ! 1 i ..g.x.Z.!.tX2X9 l >.>.a.L.*.,.",
"w.6.&.&.=.5.>.1.b b b D , S 4XyX!.x.2 X f q 5 g.l.3X).( 9 8 A P 5 + : 9 ! z.Z.G.*XqX$X7 >.9.m.m.,.:.",
"%.-.9.,.w.v j b l g z & 7 #X*X2Xo.I.! @ 5 ; ( ..4 2 tXMX2X..N 8 : : % - ( g.' _ F.1XwX{ t b >.1.n b ",
"b &.>.n 9.l u h y l e o R.<X].x.z...] , : o 1 Q c...~ _.;X8Xx.o % W o , _ { } / I.XX'.>X1 e 0 y x b ",
"c 0.L K g b l l l b * F.wX;XX.Y P D X.2 o : o = 2 2 + % 3 s t , + = ] 6 3 U R +.W.E.P `.v.t y b x >.",
"9.w.9.1.b &.g ; q < k.<X$Xk.v.f X 9 / < o , , o * n.7X+.# 5 ( 3 o : P ] X 5 _ W.).o.U Y.b.e b >.v L ",
"w.a.a.e.L n 1 2 2 i 6XOX} E & , * , , % + , % = ~ U.n.p 2 ^.!.1 + * W , , * * 7 ] ) [ f ! q 1.L b n ",
"L >.q.:.b b 3  .i . `.E % + * k i P 1 , * * * o 3 o.) t.iX).* + : + , , z.J < ! ! p ' W.s z >.&.b v ",
"L l z l K b B F.p X [ : : : a K & 6 A Y 3 o * % , b./.F.*XC X * o < U , ] s 1 p P P _ (.A p >.a.>.8.",
"U l z l z i S S.7 o + , o q >.z q Z X.S < q 3 * * X @ 4   X o , 3 U ( % % % ; p h.h.[ v.' = z e.8.u.",
"n 9.q.>.,.t o.I.% % , * t a.9.%.:.Z ] < >.&.j l , , 1 N 7 s i I z.A 6 % * i s f A... .U.s 8 s >.8.9.",
"9.M.>.>.k Z ^.k.< 0 < v f.P.u.n m.m.i 8.C.f.*.b h , 1 B I h.S Z C % $ q q.C.n 9 Y.j.{ S.Z i b 5.>.1.",
"q.^ 9.b 3 l.T.b.i q :.,.a.t.8.,.y.a.<.,.8.d.K.:.z v < O 7 3 . o o t 9.*.<.9.v 9  .j.] +.A.< F J.<.:.",
"p.a.9.z D z. .T.B % j z 3.e.1.,.3.y.i.d.y.&.u.%.*.y.8.s g z F z 1.*.9.%.#.,.&.d } Y.x.h.!.Z t 9.,.,.",
"<.9.y.z G c.' k.3 % K j #.*.&.>.J.P.L.H.d.&.n j $.3.u.<.<.y.&.>.,.&.:.:.#.%.=.l t ~.~.g.^.b.i l j #.",
"h &.y.z } c.] h.% * b *.#.h &.&.a.d.5.i.9.F >.=.x $.<.a.y.=.j x g e g ,.,.z x <.0 h.Q.] !.b.f #.%.%.",
"g ,.:.l | A.U } 9 - x b %.#.9.&.<.9.&.&.>.>.9.u.*.j <.<.-.*.#.j j 0 y z %.:.%.9.c k ! g.Z.W.f 1.7.y.",
"v &.%.l h.....A 5 % s L &.*.<.>.<.r.&.h b 8.u.9.j z #.:.w.,.-.b g l z l b >.2.2.<.b , R A.!.D 9.=.b ",
"j r v q T j.o.B % % a K %.&.:.1.&.m n j b 8.8.l z H g b 1.:.%.K v l y l b ,.9.b >.1.l 1 | (.Y >.s K ",
"l l l . } D. .! < % 0 b &.8.>.:.b &.b x j >.b v L v l l j 2.a.>.i z l l b >.8.b %.F ,.0 s ` L K v b ",
"m z k & h.b.X.! = % t j c L z b %.w.%.z %.&.c h c c b z z p.u.%.k j z b x n n L j #.-.$.t 9 &.n g j ",
">.:.e < I c.] e o < >.j &.b K j %.<.<.%.b &.&.n 0.9.n F F :.b u x 5.d.2.m b v b z %.-.=.y z &.8.n 9.",
"9.q.e 1 J { Z : * b 9.<.>.m >.>.>.B.u.&.&.v n a.d.7.&.:.z j n >.r.a.a.y.9.9.n b F &.i.s.&.&.v L w.s.",
"B.K.w 3 ] Z % o l %.&.y.a.B.M.L e.K.m.a.w.n v q.M.B.J.9.>.>.>.8.1.q.b %.i.a.P.e.:.>.d.a.9.a.>.K q.m.",
"8.e.i 7 7 , o i 1.j 2.w.&.a.e.8.8.b L >.9.a.a.a.6.8.8.9.,.&.9.8.>.>.b p.M.e.e.e.8.w.n &.>.8.w.e.a.q.",
"p.[ K 1 - o i b b 9.,.L m.e.e.N.w.q.L b &.M.C.%.>.0.^ 8.<.<.a.p.n L w.,.w.V.e.8.w.m.6.&.n :.w.V.>.:.",
"2.8.<.B   * b L b l l ,.9.w.a.<.:.n K >.9.a.M.,.%.9.9.9.w.%.:.8.>.b v v 9.q.m.m.>.,.-.m >.q.m.a.,.,.",
"b &.a.1.D L g s u s b F %.:.<.2.p.w.j :.z &.<.%.x z >.w.M.M.K x l u s l j :.2.w.>.a.w.v L v >.2.&.#.",
"z >.9.j %.x z u a l l z %.h b :.<.m.l K e i s z %.#.>.1.b :.z g t u v g z K l L :.9.9.z s s a z :.N."
};
