/* XPM */
static char *result[] = {
/* columns rows colors chars-per-pixel */
"50 50 157 2 ",
"   c #050403",
".  c #080603",
"X  c #0D0D05",
"o  c #0F1106",
"O  c #0F1108",
"+  c #121207",
"@  c #191103",
"#  c #161907",
"$  c #141508",
"%  c #191709",
"&  c #161909",
"*  c #1B1C0B",
"=  c #1B1C12",
"-  c #241701",
";  c #281702",
":  c #271B04",
">  c #2C1A02",
",  c #211E0C",
"<  c #331D01",
"1  c #3A1E01",
"2  c #1D210C",
"3  c #1D2211",
"4  c #1F2A10",
"5  c #292003",
"6  c #23240D",
"7  c #2E2008",
"8  c #252A0E",
"9  c #2A2B0F",
"0  c #362001",
"q  c #3B2101",
"w  c #382D07",
"e  c #312208",
"r  c #39260A",
"t  c #332B0D",
"y  c #3B2C0D",
"u  c #25320F",
"i  c #2B320C",
"p  c #333B0C",
"a  c #232611",
"s  c #252C13",
"d  c #2A2E11",
"f  c #232C18",
"g  c #292D1B",
"h  c #342D12",
"j  c #253214",
"k  c #2C3313",
"l  c #263914",
"z  c #2D3A16",
"x  c #263319",
"c  c #2C341A",
"v  c #273B19",
"b  c #2D3B1B",
"n  c #323513",
"m  c #3C3617",
"M  c #343B14",
"N  c #3A3D15",
"B  c #32371A",
"V  c #333C1C",
"C  c #393E1C",
"Z  c #2E3B21",
"A  c #333D21",
"S  c #393E22",
"D  c #422302",
"F  c #442709",
"G  c #473412",
"H  c #413C17",
"J  c #413E1F",
"K  c #2E421A",
"L  c #344117",
"P  c #3B4216",
"I  c #354916",
"U  c #3E4916",
"Y  c #34421D",
"T  c #3B441C",
"R  c #364A1D",
"E  c #3D4A1C",
"W  c #2D4020",
"Q  c #354322",
"!  c #3C4422",
"~  c #374923",
"^  c #3D4B23",
"/  c #3D4428",
"(  c #3E4B29",
")  c #3E5323",
"_  c #404017",
"`  c #43461A",
"'  c #484719",
"]  c #444B1A",
"[  c #4A4D1B",
"{  c #46511C",
"}  c #4C541D",
"|  c #4E5A1E",
" . c #50561E",
".. c #535B1F",
"X. c #53601F",
"o. c #424624",
"O. c #434B24",
"+. c #4A4C26",
"@. c #404428",
"#. c #444C2A",
"$. c #4A4C2B",
"%. c #504E27",
"&. c #445224",
"*. c #4B5424",
"=. c #415827",
"-. c #4C5A23",
";. c #45522B",
":. c #4A532B",
">. c #475928",
",. c #4C592B",
"<. c #505723",
"1. c #545D20",
"2. c #5A5D21",
"3. c #51572E",
"4. c #535B2C",
"5. c #464D31",
"6. c #445231",
"7. c #4D5431",
"8. c #4E5932",
"9. c #515532",
"0. c #525A34",
"q. c #555E3A",
"w. c #5B5E39",
"e. c #4B602E",
"r. c #556222",
"t. c #5A6423",
"y. c #5D6A24",
"u. c #55622E",
"i. c #5A6737",
"p. c #5A6B35",
"a. c #5E633A",
"s. c #5E6D3C",
"d. c #606624",
"f. c #626C25",
"g. c #626E2D",
"h. c #647226",
"j. c #687327",
"k. c #657529",
"l. c #6A7529",
"z. c #677829",
"x. c #6D7B2A",
"c. c #727E2B",
"v. c #606F34",
"b. c #6E812B",
"n. c #74832D",
"m. c #79842E",
"M. c #76892E",
"N. c #7C8C2F",
"B. c #788732",
"V. c #7E8D30",
"C. c #7D9132",
"Z. c #829232",
"A. c #8C9F36",
"S. c #8CA136",
"D. c #94A73B",
"F. c #93A93A",
"G. c #99AE3A",
/* pixels */
"Y #.V V z L l l Y T / B V B S B ! E Y z u l V z z Y ~ V l z z j k l ! M B l R Z z ^ ~ I j 4 c ! k V ",
"^ E I ^ Y Y c l ) O.T V C V M O.,.O.;.l j V Y T T ) I R T Y Y j k E o.C k V L z { =.O.#.x b b Y V ! ",
"O.&.;.#.Y I c l ( R b V T ! ^ o.O.#.R V b Q V z I &.;.;.T b j C { ] P s V V T ^ R ^ ^ R b A Q Q l V ",
"M ! ^ b z L V c Y b v ! C U ] z L ! { M E k z s c V L T r.k.y.M.y.| k P M k d s s z z R Y ~ V c V z ",
"+.C A x Y O.#.V ~ C n s g.n.x.U ] y.| | ..] M l.<.C M ] r.y.x.h.y.{ U U n 6 6 6 * 3 z ! b V J #.C ! ",
"@.c Z l Y >.O.Q #.] ! r.j.c.f.` 9 M } } ] ..l.f. .1.t...y.h.h.k.x.f.r.] 6 * * , 8 o k T Y / ! 7.#.O.",
"k M ! T E -.*.:.O.c A l.f.l.j.} P ] P P i } A...} ' j.d.} ..h.y.f.1.M 8 % % % * % % M T %.&.T T 5.O.",
"O.9.P ) 4.<.*.} O.b c l.N.Z.x.t.....M | P ' y.] N ] ..[ N } y...[ k 7 9 * 6 + * % k 6 2 o.4.4.3.7.#.",
"! J +.&.O.] ] ] I ( &.t.j.....P N N P P ' N t M ..Z.c.d.t. . ._ 6 9 7 n k } M M s k * + % a 4.v.6.~ ",
"5.$.O.O.;.8.C ! ! *.f.d.N k X.N 9 9 n 2.m.f.N p c.m.f.X.M 9 ] m 6 * M } | ] { P i % % 8 , X B ;.Q Y ",
"( :.) R ( V V r.t.V.G.G. .m n 8 t.n.t.c.Z.Z. .P d.....' 9 n P 9 , 6 M } U ] k k 2 % * k a + = B B A ",
"K ! ;.O.:.E C.C.B.f.n.c.x.] t [ x.f.f.f.h.2...t. .n ..2...' X.j.N 9 ] U n U k n j # % * d 6 + f b B ",
"x / A M ^ ] Z.F.Z.j.X.h.X.p 6 } ..N X.f.j.' [ ..d.1...} ..j.x.x.[ 6 8 N M U P d k * % # 2 * + O 4 #.",
"v / Y ^ R &.Z.S.c.c.j.X.n 9 9 9 N t... .d.n n j.f.t.] m N f.n.[ ] ..M 6 M k P P k 2 % % % + X X f A ",
"c k V R Y P f.1...X.P ] .. .t.2. .t.t...[ [ X.S.c.[ d.' h p X.X.y.y.h.d 8 8 k n n 8 X o % * O X s Z ",
"c c c j V ] ] ] n h 9 N Z.m.n.h. .2.2. .] ..p ..' 9 2.j.'  .X.n.y.<.r.[ % % 8 * * 6 $ 2 d k + O f A ",
"B Q c C x.N.f.j.' 9 z r.n.h.k.f.....j.H 9 8 8 | U H f.} [ ] h.N.P U N 8 X X $ % * * * 6 k * . 2 x V ",
"T V E F.D.S.M.k.] ] M y.x.' } } _ n } n N 1.y.N.h.X. .M n ' h...m ] P s * X X $ * $ X # 6 . O Q ~ ;.",
";.O.C C.S.f.d.' N ' n n l.} ..} i 9 i n l.C.z.M.y.} p M n M 9 4 k M 9 % * X $ X + o o + o . 2 ~ ;.4.",
"0.u.z t.n.j.c.f._ n 7 M f.X.....m n 8 ' h.y.| | { U * n ` P n p 6 $ # X + $ 2 % # 8 # * * 6 c b o.$.",
"+.V t.-.y.j.c.x.U , 9 M ..[ [ m M 8 6 l.M.t.r.| ] d 6 ] t.r.z.-.M * + + X + % 2 2 s 2 u s d ( ^ ^ o.",
"+.6 U } r.X.` M 9 9 t N '  .' H ' 1.m ..n.y.X.} M 6 9 r.k.k.h.] M 9 + X X X o * # 2 j 2 3 V :.,.Y ^ ",
"#.s 8 P { p M k i ]  .k...[ H ..f.y.-.n } | M N d % m b.y...U M 8 6 + + 2 8 $ $ % % 2 o d #.8.7.Q ~ ",
"b M m p { { P p } j.X.]  .[ ..n.C.y.z.-.] | ` 9 a i U y.X.L M * 6 2 * * 2 8 s 2 + + X O b Z S o.! M ",
"l f.t.d -.b.| 9 ..f.n.r.N { h.f.r.f.B.t.{ T ` k 8 * 9 ] M M k 9 2 % M 2 2 9 * * + O O $ Z 4 4 s l V ",
"k T d P { h.t.d n [ x.y.} ..X.d.y.] m N M N U 6 * % * k * * M { P $ % % $ 4 # $ 2 2 2 * b j s V k Q ",
"! #.* P y.....d , M } n M n } f.] a X 6 i { ] n P d * % % 8 ] U U 6 + o o # + o 2 k 2 & x v C ! B ! ",
"#.:.S k | ..} _ a n P d , * 6 _ h d # n N r.| | n 8 2 6 8 P k U L 2 % 2 * X X % % 2 a 2 c Q ! S B S ",
"S ! #.f T P M N d N , 9 , * 9 M P N * # } y...-.* # # k k k d P z + + # 2 6 + s 8 # + * A S ! T B B ",
"S c c x V T X 6 * , , M N 9 6 k k d n P ] M M P u 2 % k k d 6 2 2 2 2 # % * s % % X . * V S ! ;.^ ! ",
"S g c c 3 * * $ # k P [ N 2 % * k n ] ..n 6 * $ 2 % # 9 8 2 o X # k 9 2 2 o * X   O + * B ! C 6.#.#.",
"C #.#.~ a 2 o.#.g M M n 6 $ 9 n P m P n 6 * $ X + 2 2 2 2 # . * 9 j 2 2 # + X O * B ! ! 0.0.C T o.O.",
"O.7.S ( ,.+.,.+.a M M 8 6 * 6 d M N n , % % 8 * $ X X $ % 8 4 2 8 2 + o % $ X M T O.8.! O.a.4.] ( ! ",
"+.J o.&.;.>.] s d B m a % . . . k M a + , 6 8 8 * + X # 2 M k 2 2 # o o O X X g O.~ 8.E o.+.i.i.~ Q ",
"$.:.O.E ) >.L V z V d 3 X O + o 2 4 + % T M 6 9 # X X $ 2 6 2 * # O 2 # % . + a ^ ) >.-.,.T O.#.~ ~ ",
") { &.) ;.T L Y V V g k j 3 & l :.,.* a n u * 6 $ o X $ + $ o O O # 2 2 * X * k R p.v.-.i.;.! V c Y ",
"c I &.E &.n z j 8 k B ~ K k T Y >.3.8 6 + % 2 * + * @ ; > 9 + + O o * s % + + V E ,.u.E >.^ l ! R K ",
"g ! Y V O.Y V B s j c B K K o.! ( O.B 8 2 g * @ > ; > q > N l a % $ + O o # v #.I >.E L Y Y V ;.{ &.",
"c T Y / E E Y d k k B A Y E ^ ( ( ` P k V #.y < q > < q < M R V 2 * O * f C ~ ~ ~ / / ~ x Q T 4.T V ",
"l k V ~ ~ ^ Q b Z j b A T ! Y ! ! n Y c z O.r 0 D < 0 D < B Y V g * 3 v V ! #.Y ! ! S Q Z B ! ! g A ",
"z z V K ) ,.R Q A v s b ! ! ! ! V T V v B T h < < < < D < M :.! f c c c V ! +.V S b Q l c b ! V c Q ",
"B c Q l ) *.( ~ Q Y V z M V b Z L ( V K Q h e 0 < 0 0 0 < y ;.Y x b B b c B B S b K I Y V Q O.V k c ",
"o.T Y v b T Y Y ) ,.o.M C A A b V ^ ^ Y V 7 < 0 > q q < < t V d l ^ ,.#.V C B A b Y I E M V P ! N O.",
"O.#.R c M ! ! ^ >.>.&.^ ! M T ! ( 8.*.T Y r D 0 0 < < < < < 5 T o.:.8.&.O.T C B V ~ *.,.T ! B ! $.>.",
"0.a.;.O.! / ! ! ;.Q I &.,.0.9.! ;.0.8.+.G 1 < > < 0 < < < < : o.o.#.B Y *.,.v.$.Q ! 0.>.#.;.S V / 7.",
"o.$.#.S ! S #.` o.V ~ #.T $.$.o.@.V S o.F 1 ; > < 0 < < < < > ! ! S Y ;.8.$.$.$.@.$.M C ! O.#.$.#.#.",
"5.J ! / 5.;.#.C V #.S S 8.$.#.6.;.! S m D q > > < 0 < 0 > > > o.V C #.! #.q.#.o.6.$.` ! C S #.a.~ ^ ",
"#.O.o.^ Q ^ / ! B c z ~ #.#.:.^ Y S B F 1 1 D 1 < 0 q 0 < > > B @.A z B O.#.7.8.! ! P z ! #.6.;.~ ~ ",
"c O.,.,.q.B x g s c B W Q Q O.( ;.#.M y w i p p u t m J +.#.V l c d g B b ~ ! #.! :.#.n S V ! #.Y K ",
"l ! O.c Y l c s g c c b V l V ~ ( 5.v A f f k b Q b ! ! b S Z s a f g c b Q c S Q O.( c g g f Z Q 5."
};
