/* XPM */
static char *result[] = {
/* columns rows colors chars-per-pixel */
"25 25 210 2 ",
"   c #0A0401",
".  c #090A05",
"X  c #100200",
"o  c #131207",
"O  c #24180B",
"+  c #291506",
"@  c #2A1C11",
"#  c #381B11",
"$  c #352108",
"%  c #232C14",
"&  c #2A2C14",
"*  c #26291B",
"=  c #3B2619",
"-  c #3B2A1D",
";  c #2B3515",
":  c #2C3B16",
">  c #2C3319",
",  c #2D3B1B",
"<  c #263215",
"1  c #323C16",
"2  c #323619",
"3  c #333C1B",
"4  c #393E1C",
"5  c #3F3117",
"6  c #202520",
"7  c #343E21",
"8  c #383D21",
"9  c #4A1C0D",
"0  c #5B1E14",
"q  c #54360E",
"w  c #492615",
"e  c #422718",
"r  c #592717",
"t  c #49301D",
"y  c #5C311E",
"u  c #752E14",
"i  c #6A321C",
"p  c #64361D",
"a  c #7A391E",
"s  c #78301C",
"d  c #473A26",
"f  c #5F3B25",
"g  c #583828",
"h  c #633723",
"j  c #693A26",
"k  c #783A25",
"l  c #2C4519",
"z  c #2B4017",
"x  c #3D4C15",
"c  c #34421C",
"v  c #3A441C",
"b  c #3B4A1D",
"n  c #394416",
"m  c #354321",
"M  c #3C4422",
"N  c #3C4A23",
"B  c #3D4A29",
"V  c #334822",
"C  c #3B4435",
"Z  c #414B14",
"A  c #42471D",
"S  c #444C1C",
"D  c #4A4F19",
"F  c #59481D",
"G  c #45501E",
"H  c #4D551C",
"J  c #4F5D1E",
"K  c #485114",
"L  c #52581D",
"P  c #595E1C",
"I  c #634E14",
"U  c #7D4E1D",
"Y  c #546316",
"T  c #52601D",
"R  c #5B621B",
"E  c #5D6115",
"W  c #656B1D",
"Q  c #65691A",
"!  c #72651C",
"~  c #6B731E",
"^  c #767F1F",
"/  c #414624",
"(  c #424B23",
")  c #454B2B",
"_  c #4C4B2C",
"`  c #494728",
"'  c #5C4729",
"]  c #435224",
"[  c #4A5324",
"{  c #4C5B24",
"}  c #4B532A",
"|  c #4D592A",
" . c #545B23",
".. c #52562B",
"X. c #535B2B",
"o. c #5A5B2B",
"O. c #57532B",
"+. c #4D4936",
"@. c #5D4130",
"#. c #545A30",
"$. c #585634",
"%. c #63452B",
"&. c #79442A",
"*. c #6B5F21",
"=. c #775D27",
"-. c #624C31",
";. c #6B4A31",
":. c #62553D",
">. c #6A5A3A",
",. c #745B37",
"<. c #7B4735",
"1. c #4F6029",
"2. c #546121",
"3. c #5B6523",
"4. c #5A632C",
"5. c #5B6828",
"6. c #5D6334",
"7. c #556534",
"8. c #616524",
"9. c #646C24",
"0. c #6B6E24",
"q. c #646C2B",
"w. c #6C6F2C",
"e. c #60672D",
"r. c #6B7325",
"t. c #6C742A",
"y. c #6D792A",
"u. c #667229",
"i. c #74782B",
"p. c #636635",
"a. c #6D693D",
"s. c #686938",
"d. c #726D34",
"f. c #7A693C",
"g. c #6E7931",
"h. c #757532",
"j. c #7B7E3B",
"k. c #76783A",
"l. c #5C5F44",
"z. c #665B43",
"x. c #725E42",
"c. c #6C6C42",
"v. c #6C6A45",
"b. c #786A44",
"n. c #777144",
"m. c #626750",
"M. c #777654",
"N. c #8A3B1F",
"B. c #80591C",
"V. c #A4451A",
"C. c #824422",
"Z. c #8D4929",
"A. c #954A28",
"S. c #855B26",
"D. c #845737",
"F. c #925C32",
"G. c #A55F36",
"H. c #A45925",
"J. c #8C6523",
"K. c #976D2D",
"L. c #886A37",
"P. c #986A38",
"I. c #86733E",
"U. c #9A7234",
"Y. c #A2642D",
"T. c #A96233",
"R. c #B46C34",
"E. c #BD6E34",
"W. c #A57738",
"Q. c #BD7B39",
"!. c #B77535",
"~. c #CD682D",
"^. c #CD7D3B",
"/. c #C37D3B",
"(. c #E87B39",
"). c #876943",
"_. c #8C714C",
"`. c #9A7E43",
"'. c #A67F4F",
"]. c #B87541",
"[. c #7A813A",
"{. c #B7853C",
"}. c #C7883B",
"|. c #978959",
" X c #A9834F",
".X c #BB8F4A",
"XX c #A88552",
"oX c #BC8150",
"OX c #8A8C67",
"+X c #989269",
"@X c #CC8143",
"#X c #C68D42",
"$X c #CE8F45",
"%X c #D68843",
"&X c #C9944A",
"*X c #D49448",
"=X c #CE8952",
"-X c #CC9A51",
";X c #C59652",
":X c #D7945F",
">X c #DAAB59",
",X c #E4A954",
"<X c #F4B959",
"1X c #D89960",
"2X c #DDB663",
"3X c #EDA56B",
"4X c #EAB171",
"5X c #E9CC7A",
"6X c #F2C17B",
"7X c #F9D483",
/* pixels */
"c , / M B / 3 8 4 / $.6.} n S G S ] b m , % % > 8 ",
"M N B M M / 4 2 / X.q.o.H { 2.L o.L { A ; ; 8 > 3 ",
"M / v ( / 4 A A D 2.8.P Q W Q W w.8.3.[ v 1 < , m ",
"M v / M v M S H P w.0.*.$.z.@.f ;.a.[.q.A A 3 > 7 ",
"1 2 3 3 v [ L P w.x.<.j h g f <.a s b.i.H | [ 3 3 ",
"8 8 3 c x T W h.D.A.g = e @ e j i r u D.9.R q.X.3 ",
"N v c n T y.h.L.Z.k @ w r # y p w + 9 u d.t.5. .[ ",
"[  .{ x R s.;.&.h %.= p 9 h A.i ' ` t k D.d.J ] | ",
"( O.X.L 4.>.z.@.- M.+.k 0 s Z.I t.a.@ d i *.R 1.[ ",
"} .. .5.p.k.>.-.f _.@.#XT.Z.a C.,.l.d -.N.! q.{ N ",
"N [ X.2.6.v.v.b.1X7X5X<X}.E.A.L.D.p f.G.k ! H n N ",
"z 3 [  .g.c.x.oX3X4X7X>X}./.H.f.~.(.~.V.x.R Z n l ",
"c : / K ~ j.P.=X:X4X:X^./.-XR.F.R.!.~.F.0.K n 1 c ",
": : v Z Q [. XQ.%X}.R.{.*X.X&X!.F.P.P.d.P D D 4 1 ",
"3 3 c X.q.i.'.@X^.^./.}.!.U.;X>XW.W.L.Q L L } v 1 ",
"m M M | 3.h.;.].%X*X}.W.=.U.2X>X}..Xi.P D _ / 3 8 ",
"3 3 M N K R $.'.;XXX|.K.! K.>X,X}.I.~  .v M 2 2 , ",
"M M M M b R 0.n.).|.+X XK.J.}.}.U.k.r.X.b 4 M > & ",
") / / c n P r.j.M.OXOXf.,.=.B.B.s.~ u. .v v ) M M ",
"| | ( v X.e.t.j.m.M.M.O.D F q %.[.y.q. ...( 8 M | ",
"o.p.| v #.s.5.h.l.C +.` 5 $ + a.y.q.4.X.o.} 3 m ) ",
"` _ / N ) #. .9.k.6 * * O   d [.t.4.X.[ / / ] N N ",
"N } N V N 2.3.u.i.(   o     p.9.L { | B B b N c l ",
"l b V b 7.6.5.[.y.3.) o . } y.3.2.{ M m m V m m , ",
"l ; c v | o.G 3.2. .3.W Y Y R 4.{ ] 1 : < % < m V "
};
