/* XPM */
static char *result[] = {
/* columns rows colors chars-per-pixel */
"25 25 209 2 ",
"   c #0A0302",
".  c #070A05",
"X  c #170E03",
"o  c #1B1B0E",
"O  c #2C1C0C",
"+  c #27190A",
"@  c #3F1F13",
"#  c #282017",
"$  c #242D14",
"%  c #292A17",
"&  c #382514",
"*  c #2A3415",
"=  c #2D3C17",
"-  c #2D3319",
";  c #2E3B1B",
":  c #273618",
">  c #333C17",
",  c #31331A",
"<  c #333C1B",
"1  c #393F1D",
"2  c #2A2F21",
"3  c #3B2E21",
"4  c #343F22",
"5  c #383F21",
"6  c #38392A",
"7  c #4F1F13",
"8  c #551D11",
"9  c #571C08",
"0  c #422D0B",
"q  c #54250F",
"w  c #51310B",
"e  c #432315",
"r  c #462619",
"t  c #512E1D",
"y  c #5B2519",
"u  c #612411",
"i  c #722C10",
"p  c #743C1B",
"a  c #483725",
"s  c #553021",
"d  c #593A2B",
"f  c #593928",
"g  c #673722",
"h  c #6A3A22",
"j  c #683F29",
"k  c #753C25",
"l  c #773C28",
"z  c #2C4519",
"x  c #35421C",
"c  c #3C441D",
"v  c #3B4A1D",
"b  c #324517",
"n  c #3D521B",
"m  c #354322",
"M  c #3C4423",
"N  c #3C4B23",
"B  c #3F4C29",
"V  c #334822",
"C  c #3F5223",
"Z  c #3B4238",
"A  c #424B1E",
"S  c #494C1E",
"D  c #4E411C",
"F  c #4A521D",
"G  c #4C5A1C",
"H  c #73401E",
"J  c #7F5A1E",
"K  c #694C19",
"L  c #414624",
"P  c #434C23",
"I  c #494D23",
"U  c #43442D",
"Y  c #454C2A",
"T  c #4C4B2C",
"R  c #59492D",
"E  c #455423",
"W  c #4B5324",
"Q  c #4C5A24",
"!  c #44532A",
"~  c #4C542B",
"^  c #4E5A2A",
"/  c #525622",
"(  c #525B25",
")  c #53572C",
"_  c #555C2A",
"`  c #5B5D2C",
"'  c #5A542A",
"]  c #464333",
"[  c #544532",
"{  c #4B5530",
"}  c #585A34",
"|  c #69412A",
" . c #73422A",
".. c #7A452C",
"X. c #68562A",
"o. c #745224",
"O. c #634B37",
"+. c #744730",
"@. c #675D36",
"#. c #645A3D",
"$. c #695839",
"%. c #775638",
"&. c #4E6226",
"*. c #5A6126",
"=. c #56612B",
"-. c #5B632C",
";. c #576227",
":. c #5B6332",
">. c #5E6B32",
",. c #586239",
"<. c #636B2E",
"1. c #64632B",
"2. c #67702C",
"3. c #626431",
"4. c #686031",
"5. c #646B33",
"6. c #6A6936",
"7. c #6B6C3A",
"8. c #68673B",
"9. c #746736",
"0. c #6A7233",
"q. c #687039",
"w. c #747D3D",
"e. c #77753E",
"r. c #5B5A41",
"t. c #5D6045",
"y. c #636545",
"u. c #696E42",
"i. c #6B6A4A",
"p. c #676444",
"a. c #74654A",
"s. c #796544",
"d. c #6B7441",
"f. c #737342",
"g. c #7F7444",
"h. c #616751",
"j. c #7C7957",
"k. c #80461B",
"l. c #8A571E",
"z. c #894323",
"x. c #85472A",
"c. c #904B2C",
"v. c #97552B",
"b. c #844731",
"n. c #865C38",
"m. c #925C33",
"M. c #975234",
"N. c #AD4E23",
"B. c #B15824",
"V. c #A55C29",
"C. c #826123",
"Z. c #936E2D",
"A. c #946726",
"S. c #88673A",
"D. c #986838",
"F. c #8E7031",
"G. c #B5692D",
"H. c #AA6C34",
"J. c #B06737",
"K. c #B36C37",
"L. c #AC7D3D",
"P. c #BA7637",
"I. c #BA7C3C",
"U. c #C36F2F",
"Y. c #C37C39",
"T. c #CD7E3E",
"R. c #D17C36",
"E. c #E27634",
"W. c #876442",
"Q. c #986D44",
"!. c #887D49",
"~. c #937B4A",
"^. c #A67549",
"/. c #C57840",
"(. c #B78038",
"). c #BF8639",
"_. c #CC8C3C",
"`. c #C2853F",
"'. c #C5903F",
"]. c #9B834B",
"[. c #8D8255",
"{. c #9A8E5F",
"}. c #B48744",
"|. c #B78447",
" X c #BC924B",
".X c #A68D54",
"XX c #AC8745",
"oX c #8A8E6E",
"OX c #939470",
"+X c #C98446",
"@X c #D78F40",
"#X c #DB8C43",
"$X c #D5894D",
"%X c #CC934C",
"&X c #C6994E",
"*X c #CA9750",
"=X c #D5925B",
"-X c #DAA24F",
";X c #D5A252",
":X c #E9AB4F",
">X c #E5B65F",
",X c #E59E68",
"<X c #DEB16C",
"1X c #E8B86A",
"2X c #E4AA6B",
"3X c #FFC07C",
"4X c #EED57F",
"5X c #F4C86A",
"6X c #FED788",
/* pixels */
"x = L M B Y c I W ` d.f.4.X.@.7.*.=.W P m $ % - m ",
"M N Y M Y I I S *.8.a.d j l k +.W.9.;.W = = 4 - < ",
"M P c Y I S ( <.X.O.d d j p u 9 i %.6._ c > * ; 5 ",
"c c P P I Q 3.%. .s & O t g 7 + q p %.@.P L 1 : 4 ",
"< < 1 v F 5.%.b.t e r e h h a ] a r g o.W ! I < , ",
"5 5 c P &.7.M...& r 7 y c.p ' y.a , l ..( Q >.~ < ",
"L P v F <.n.x.| a t q 8 z.p o.#.] $.M...1.-._ W I ",
"W ( ;.G @...s [ r.d v.v.z.z.m.n.v.J.N.s.<.:.c N ! ",
"I ` -.:.#.O.s [ a.~.-X#XU.V.S.D.E.R.B.f.1./ N ! B ",
"! ) ` 3.i.y.R Q.<X6X5X#XY.P.m.m.J.H.H.f.*.I ^ N N ",
"Y W :.:.h.i.a.=X1X6X1XR.`.*X^.K.A.D.S.0.-.A > = x ",
"b x ~ _ i.p.W.=X,X2X+X^.%X}.&X-X}.I.!.*.W x * * z ",
"x = L F 5.f.Q.+X$X_.G.+X`.A. X5X-X`.e./ c * % * ; ",
"= = x v ;.2.[.|.R.R._._.A.l.(.>X:XL.9.F A > c < > ",
"< < > ~ :.5.!.^./.#X&XXXF.J F.)._.F.7.S c A Y < - ",
"m M B Y ~ =.4.O.^.%X.X{.].F.J A.l.$.<.S 1 U M < M ",
"1 ; 4 m x S _ ) s.].[.OX[.9.X.K w @.<.W c m , - , ",
"M M M m ; N / _ 5.i.j.oXj.R D 0 O y.5.) x 1 5 - $ ",
"Y P M < ; L I / 1.u.h.h.,.T & X # d.<.( c c Y M L ",
") ~ P x ! ~ ~ 5.0.<.t.Z 2 , +   % d.0.*.) L 4 Y ~ ",
"` 3.W 1 { } Y ~ 5.0.<.,.. . X   U q.-._ ` ~ < m ! ",
"I T L N Y ~ B P W 5.w.-.{ 6 o , :.:.:.~ U L E v N ",
"B Y M V C E Q ^ E F =.Q &.>.<.*.( Q ^ B B v C x z ",
"z v N V ,.>._ >._ c M v n &.;.Q Q ^ N m m m m 4 ; ",
"z * c c ~ ) v ( E < M v b x E ^ E E = = : $ : < V "
};
